G04*
G04 #@! TF.GenerationSoftware,Altium Limited,Altium Designer,22.4.2 (48)*
G04*
G04 Layer_Color=8421504*
%FSLAX44Y44*%
%MOMM*%
G71*
G04*
G04 #@! TF.SameCoordinates,526C220A-A096-4E3C-8F2C-01EC2D9484EB*
G04*
G04*
G04 #@! TF.FilePolarity,Positive*
G04*
G01*
G75*
G36*
X61750Y116500D02*
Y133500D01*
X44750D01*
X44750Y128850D01*
X44725Y128596D01*
X44531Y128128D01*
X44172Y127769D01*
X43704Y127575D01*
X43450Y127550D01*
X43450D01*
X33550D01*
Y122450D01*
X43450Y122450D01*
X43704Y122425D01*
X44172Y122231D01*
X44531Y121872D01*
X44725Y121404D01*
X44750Y121150D01*
X44750Y121150D01*
Y116500D01*
X61750D01*
D02*
G37*
G36*
X61750Y156500D02*
Y173500D01*
X44750D01*
Y168850D01*
X44725Y168596D01*
X44531Y168128D01*
X44172Y167769D01*
X43704Y167575D01*
X43450Y167550D01*
D01*
X33550D01*
Y162450D01*
X43450Y162450D01*
X43704Y162425D01*
X44172Y162231D01*
X44531Y161872D01*
X44725Y161404D01*
X44750Y161150D01*
Y161150D01*
Y156500D01*
X61750D01*
D02*
G37*
G36*
X44750Y153500D02*
Y136500D01*
X61750D01*
Y141150D01*
X61775Y141404D01*
X61969Y141872D01*
X62328Y142231D01*
X62796Y142425D01*
X63050Y142450D01*
Y142450D01*
X72950D01*
Y147550D01*
X63050D01*
X62796Y147575D01*
X62328Y147769D01*
X61969Y148128D01*
X61775Y148596D01*
X61750Y148850D01*
D01*
Y153500D01*
X44750D01*
D02*
G37*
G36*
X104060Y324000D02*
Y324000D01*
X104085Y323746D01*
X104279Y323278D01*
X104638Y322919D01*
X105106Y322725D01*
X105360Y322700D01*
X110010Y322700D01*
Y305700D01*
X93010D01*
Y322700D01*
X97660D01*
X97660Y322700D01*
X97914Y322725D01*
X98382Y322919D01*
X98741Y323278D01*
X98935Y323746D01*
X98960Y324000D01*
X98960Y333900D01*
X104060D01*
Y324000D01*
D02*
G37*
G36*
X64060Y324000D02*
X64085Y323746D01*
X64279Y323278D01*
X64638Y322919D01*
X65106Y322725D01*
X65360Y322700D01*
X70010D01*
Y305700D01*
X53010D01*
Y322700D01*
X57660D01*
X57914Y322725D01*
X58382Y322919D01*
X58741Y323278D01*
X58935Y323746D01*
X58960Y324000D01*
X58960Y333900D01*
X64060D01*
Y324000D01*
D02*
G37*
G36*
X90010Y305700D02*
X85360D01*
Y305700D01*
X85106Y305675D01*
X84638Y305481D01*
X84279Y305122D01*
X84085Y304654D01*
X84060Y304400D01*
Y294500D01*
X78960D01*
Y304400D01*
X78960Y304400D01*
X78935Y304654D01*
X78741Y305122D01*
X78382Y305481D01*
X77914Y305675D01*
X77660Y305700D01*
X73010Y305700D01*
Y322700D01*
X90010D01*
Y305700D01*
D02*
G37*
G36*
X61750Y188850D02*
X61750D01*
X61775Y188596D01*
X61969Y188128D01*
X62327Y187769D01*
X62796Y187575D01*
X63050Y187550D01*
X72950D01*
Y182450D01*
X63050D01*
X63050Y182450D01*
X62796Y182425D01*
X62327Y182231D01*
X61969Y181872D01*
X61775Y181404D01*
X61750Y181150D01*
X61750Y176500D01*
X44750D01*
Y193500D01*
X61750D01*
Y188850D01*
D02*
G37*
G36*
X130010Y322700D02*
X113010D01*
Y305700D01*
X117660D01*
X117914Y305675D01*
X118382Y305481D01*
X118741Y305123D01*
X118935Y304654D01*
X118960Y304400D01*
X118960D01*
Y294500D01*
X124060D01*
Y304400D01*
X124085Y304654D01*
X124279Y305122D01*
X124638Y305481D01*
X125106Y305675D01*
X125360Y305700D01*
D01*
X130010D01*
Y322700D01*
D02*
G37*
G36*
X423860Y372230D02*
Y355230D01*
X418910D01*
X418699Y355161D01*
X418329Y354921D01*
X418059Y354571D01*
X417923Y354151D01*
X417910Y353930D01*
X417910D01*
Y344030D01*
X412810D01*
X412810Y353930D01*
X412785Y354184D01*
X412591Y354652D01*
X412232Y355011D01*
X411764Y355205D01*
X411510Y355230D01*
Y355230D01*
X406860D01*
Y372230D01*
X423860D01*
D02*
G37*
G36*
X463860D02*
Y355230D01*
X458910D01*
X458699Y355161D01*
X458329Y354921D01*
X458059Y354571D01*
X457923Y354151D01*
X457910Y353930D01*
X457910D01*
Y344030D01*
X452810D01*
X452810Y353930D01*
X452785Y354184D01*
X452591Y354652D01*
X452232Y355011D01*
X451764Y355205D01*
X451510Y355230D01*
Y355230D01*
X446860D01*
Y372230D01*
X463860D01*
D02*
G37*
G36*
X443860Y355230D02*
Y372230D01*
X438910Y372230D01*
X438699Y372299D01*
X438329Y372539D01*
X438059Y372889D01*
X437923Y373309D01*
X437910Y373530D01*
X437910Y373530D01*
X437910Y383430D01*
X432810D01*
X432810Y373530D01*
X432785Y373276D01*
X432591Y372808D01*
X432232Y372449D01*
X431764Y372255D01*
X431510Y372230D01*
X431510D01*
X426860D01*
Y355230D01*
X443860D01*
D02*
G37*
G36*
X511490Y82820D02*
Y99820D01*
X494490D01*
Y95170D01*
X494465Y94916D01*
X494271Y94448D01*
X493913Y94089D01*
X493444Y93895D01*
X493190Y93870D01*
D01*
X483290D01*
Y88770D01*
X493190Y88770D01*
X493444Y88745D01*
X493912Y88551D01*
X494271Y88192D01*
X494465Y87724D01*
X494490Y87470D01*
Y87470D01*
Y82820D01*
X511490D01*
D02*
G37*
G36*
X494490Y119820D02*
Y102820D01*
X511490D01*
X511490Y107470D01*
X511515Y107724D01*
X511709Y108192D01*
X512068Y108551D01*
X512536Y108745D01*
X512790Y108770D01*
X512790Y108770D01*
X522690D01*
Y113870D01*
X512790D01*
X512536Y113895D01*
X512068Y114089D01*
X511709Y114448D01*
X511515Y114916D01*
X511490Y115170D01*
X511490D01*
Y119820D01*
X494490D01*
D02*
G37*
G36*
X511490Y122820D02*
Y139820D01*
X494490D01*
X494490Y135170D01*
X494465Y134916D01*
X494271Y134448D01*
X493912Y134089D01*
X493444Y133895D01*
X493190Y133870D01*
X493190D01*
X483290D01*
Y128770D01*
X493190Y128770D01*
X493444Y128745D01*
X493912Y128551D01*
X494271Y128192D01*
X494465Y127724D01*
X494490Y127470D01*
X494490Y127470D01*
Y122820D01*
X511490D01*
D02*
G37*
G36*
X494490Y159820D02*
Y142820D01*
X511490D01*
Y147470D01*
X511515Y147724D01*
X511709Y148192D01*
X512068Y148551D01*
X512536Y148745D01*
X512790Y148770D01*
Y148770D01*
X522690D01*
Y153870D01*
X512790D01*
X512536Y153895D01*
X512068Y154089D01*
X511709Y154448D01*
X511515Y154916D01*
X511490Y155170D01*
D01*
Y159820D01*
X494490D01*
D02*
G37*
M02*
