G04*
G04 #@! TF.GenerationSoftware,Altium Limited,Altium Designer,22.4.2 (48)*
G04*
G04 Layer_Physical_Order=1*
G04 Layer_Color=255*
%FSLAX44Y44*%
%MOMM*%
G71*
G04*
G04 #@! TF.SameCoordinates,526C220A-A096-4E3C-8F2C-01EC2D9484EB*
G04*
G04*
G04 #@! TF.FilePolarity,Positive*
G04*
G01*
G75*
%ADD13C,0.6000*%
%ADD15C,1.3900*%
%ADD16R,1.3900X1.3900*%
%ADD17C,1.3000*%
%ADD18R,1.3000X1.3000*%
%ADD24R,1.1500X1.1500*%
%ADD25C,1.1500*%
%ADD28R,1.1500X1.1500*%
%ADD29R,1.3900X1.3900*%
%ADD31C,0.5000*%
%ADD32R,1.5000X1.5000*%
%ADD33C,1.5000*%
%ADD34C,1.2000*%
%ADD35R,1.2000X1.2000*%
%ADD36R,1.5000X1.5000*%
%ADD37C,2.5000*%
G36*
X537500Y52500D02*
X20000D01*
Y442500D01*
X537500D01*
Y52500D01*
D02*
G37*
%LPC*%
G36*
X195970Y396850D02*
X172470D01*
Y373350D01*
X195970D01*
Y396850D01*
D02*
G37*
G36*
X468310Y376680D02*
X442410D01*
Y371760D01*
X441816Y371514D01*
X441140Y371351D01*
X439023Y372573D01*
X436630Y373214D01*
Y363730D01*
Y354246D01*
X439023Y354887D01*
X441140Y356109D01*
X441816Y355946D01*
X442410Y355700D01*
Y350780D01*
X468310D01*
Y376680D01*
D02*
G37*
G36*
X417065D02*
X413655D01*
X410361Y375798D01*
X407408Y374093D01*
X404997Y371682D01*
X403293Y368728D01*
X402410Y365435D01*
Y362025D01*
X403293Y358731D01*
X404997Y355779D01*
X406282Y354494D01*
Y352140D01*
X406592Y349791D01*
X407499Y347601D01*
X408941Y345721D01*
X410922Y343740D01*
Y277500D01*
X407500D01*
Y272214D01*
X403136D01*
X403136Y272214D01*
X400787Y271905D01*
X398597Y270998D01*
X396717Y269555D01*
X391481Y264319D01*
X390038Y262439D01*
X389132Y260249D01*
X388822Y257900D01*
Y219600D01*
X389132Y217250D01*
X390038Y215061D01*
X391481Y213181D01*
X411081Y193581D01*
X412961Y192139D01*
X415150Y191232D01*
X417500Y190922D01*
X473740D01*
X493912Y170750D01*
Y164270D01*
X490040D01*
Y138370D01*
X490837D01*
X491472Y137270D01*
X490923Y136319D01*
X490040Y133025D01*
Y129615D01*
X490923Y126321D01*
X492627Y123369D01*
X494676Y121320D01*
X492627Y119271D01*
X490923Y116319D01*
X490040Y113025D01*
Y109615D01*
X490923Y106322D01*
X492627Y103369D01*
X494676Y101320D01*
X492627Y99272D01*
X490923Y96319D01*
X490040Y93025D01*
Y89615D01*
X490923Y86322D01*
X492627Y83369D01*
X495038Y80957D01*
X497991Y79253D01*
X501285Y78370D01*
X504695D01*
X507989Y79253D01*
X510941Y80957D01*
X513353Y83369D01*
X515057Y86322D01*
X515940Y89615D01*
Y93025D01*
X515057Y96319D01*
X513353Y99272D01*
X511304Y101320D01*
X513353Y103369D01*
X515057Y106322D01*
X515940Y109615D01*
Y113025D01*
X515057Y116319D01*
X513353Y119271D01*
X511304Y121320D01*
X513353Y123369D01*
X515057Y126321D01*
X515940Y129615D01*
Y133025D01*
X515057Y136319D01*
X514508Y137270D01*
X515143Y138370D01*
X515940D01*
Y164270D01*
X512068D01*
Y174510D01*
X512068Y174510D01*
X511758Y176859D01*
X510851Y179049D01*
X509409Y180929D01*
X483919Y206419D01*
X482039Y207861D01*
X479849Y208768D01*
X477500Y209078D01*
X421260D01*
X406978Y223360D01*
Y251447D01*
X407500Y252500D01*
X432500D01*
Y277500D01*
X429078D01*
Y347500D01*
X428768Y349850D01*
X427862Y352039D01*
X426419Y353919D01*
X425141Y355197D01*
X425723Y355779D01*
X426685Y357446D01*
X428178Y357491D01*
X429533Y356136D01*
X431697Y354887D01*
X434090Y354246D01*
Y363730D01*
Y373214D01*
X431697Y372573D01*
X429533Y371324D01*
X428178Y369969D01*
X426685Y370014D01*
X425723Y371682D01*
X423311Y374093D01*
X420359Y375798D01*
X417065Y376680D01*
D02*
G37*
G36*
X185490Y327742D02*
Y320770D01*
X192462D01*
X191945Y322700D01*
X190854Y324590D01*
X189310Y326134D01*
X187420Y327225D01*
X185490Y327742D01*
D02*
G37*
G36*
X182950D02*
X181020Y327225D01*
X179130Y326134D01*
X177586Y324590D01*
X176495Y322700D01*
X175978Y320770D01*
X182950D01*
Y327742D01*
D02*
G37*
G36*
X192462Y318230D02*
X185490D01*
Y311258D01*
X187420Y311775D01*
X189310Y312866D01*
X190854Y314410D01*
X191945Y316300D01*
X192462Y318230D01*
D02*
G37*
G36*
X182950D02*
X175978D01*
X176495Y316300D01*
X177586Y314410D01*
X179130Y312866D01*
X181020Y311775D01*
X182950Y311258D01*
Y318230D01*
D02*
G37*
G36*
X270110Y416600D02*
X243110D01*
Y389600D01*
X247904D01*
X248148Y388330D01*
X245807Y385989D01*
X244030Y382911D01*
X243110Y379477D01*
Y375923D01*
X244030Y372489D01*
X245807Y369411D01*
X248321Y366897D01*
X250337Y365733D01*
Y364267D01*
X248321Y363103D01*
X245807Y360589D01*
X244030Y357511D01*
X243110Y354077D01*
Y350523D01*
X244030Y347089D01*
X245807Y344011D01*
X248321Y341497D01*
X250337Y340333D01*
Y338867D01*
X248321Y337703D01*
X245807Y335189D01*
X244030Y332111D01*
X243110Y328677D01*
Y325123D01*
X244030Y321689D01*
X245807Y318611D01*
X248321Y316097D01*
X250337Y314933D01*
Y313467D01*
X248321Y312303D01*
X245807Y309789D01*
X244030Y306711D01*
X243110Y303277D01*
Y299723D01*
X244030Y296289D01*
X245807Y293211D01*
X248321Y290697D01*
X250337Y289533D01*
Y288067D01*
X248321Y286903D01*
X245807Y284389D01*
X244030Y281311D01*
X243110Y277877D01*
Y274323D01*
X244030Y270889D01*
X245807Y267811D01*
X248321Y265297D01*
X251399Y263520D01*
X254833Y262600D01*
X258387D01*
X261821Y263520D01*
X264899Y265297D01*
X267413Y267811D01*
X269190Y270889D01*
X270110Y274323D01*
Y277877D01*
X269190Y281311D01*
X267413Y284389D01*
X264899Y286903D01*
X262883Y288067D01*
Y289533D01*
X264899Y290697D01*
X267413Y293211D01*
X269190Y296289D01*
X270110Y299723D01*
Y303277D01*
X269190Y306711D01*
X267413Y309789D01*
X264899Y312303D01*
X262883Y313467D01*
Y314933D01*
X264899Y316097D01*
X267413Y318611D01*
X269190Y321689D01*
X270110Y325123D01*
Y328677D01*
X269190Y332111D01*
X267413Y335189D01*
X264899Y337703D01*
X262883Y338867D01*
Y340333D01*
X264899Y341497D01*
X267413Y344011D01*
X269190Y347089D01*
X270110Y350523D01*
Y354077D01*
X269190Y357511D01*
X267413Y360589D01*
X264899Y363103D01*
X262883Y364267D01*
Y365733D01*
X264899Y366897D01*
X267413Y369411D01*
X269190Y372489D01*
X270110Y375923D01*
Y379477D01*
X269190Y382911D01*
X267413Y385989D01*
X265072Y388330D01*
X265316Y389600D01*
X270110D01*
Y416600D01*
D02*
G37*
G36*
X257932Y260740D02*
X257880D01*
Y251970D01*
X266650D01*
Y252022D01*
X265966Y254575D01*
X264644Y256865D01*
X262775Y258734D01*
X260485Y260056D01*
X257932Y260740D01*
D02*
G37*
G36*
X255340D02*
X255288D01*
X252735Y260056D01*
X250445Y258734D01*
X248576Y256865D01*
X247254Y254575D01*
X246570Y252022D01*
Y251970D01*
X255340D01*
Y260740D01*
D02*
G37*
G36*
X334587Y416600D02*
X331033D01*
X327599Y415680D01*
X324521Y413903D01*
X322007Y411389D01*
X320230Y408311D01*
X319310Y404877D01*
Y401323D01*
X320230Y397889D01*
X322007Y394811D01*
X324521Y392297D01*
X326537Y391133D01*
Y389667D01*
X324521Y388503D01*
X322007Y385989D01*
X320230Y382911D01*
X319310Y379477D01*
Y375923D01*
X320230Y372489D01*
X322007Y369411D01*
X324521Y366897D01*
X326537Y365733D01*
Y364267D01*
X324521Y363103D01*
X322007Y360589D01*
X320230Y357511D01*
X319310Y354077D01*
Y350523D01*
X320230Y347089D01*
X322007Y344011D01*
X324521Y341497D01*
X326537Y340333D01*
Y338867D01*
X324521Y337703D01*
X322007Y335189D01*
X320230Y332111D01*
X319310Y328677D01*
Y325123D01*
X320230Y321689D01*
X322007Y318611D01*
X324521Y316097D01*
X326537Y314933D01*
Y313467D01*
X324521Y312303D01*
X322007Y309789D01*
X320230Y306711D01*
X319310Y303277D01*
Y299723D01*
X320230Y296289D01*
X322007Y293211D01*
X324521Y290697D01*
X326537Y289533D01*
Y288067D01*
X324521Y286903D01*
X322007Y284389D01*
X320230Y281311D01*
X319310Y277877D01*
Y274323D01*
X320230Y270889D01*
X322007Y267811D01*
X324521Y265297D01*
X326537Y264133D01*
Y262667D01*
X324521Y261503D01*
X322007Y258989D01*
X320230Y255911D01*
X319310Y252477D01*
Y248923D01*
X320230Y245489D01*
X322007Y242411D01*
X324521Y239897D01*
X327599Y238120D01*
X331033Y237200D01*
X334587D01*
X338021Y238120D01*
X341099Y239897D01*
X343613Y242411D01*
X345390Y245489D01*
X346310Y248923D01*
Y252477D01*
X345390Y255911D01*
X343613Y258989D01*
X341099Y261503D01*
X339083Y262667D01*
Y264133D01*
X341099Y265297D01*
X343613Y267811D01*
X345390Y270889D01*
X346310Y274323D01*
Y277877D01*
X345390Y281311D01*
X343613Y284389D01*
X341099Y286903D01*
X339083Y288067D01*
Y289533D01*
X341099Y290697D01*
X343613Y293211D01*
X345390Y296289D01*
X346310Y299723D01*
Y303277D01*
X345390Y306711D01*
X343613Y309789D01*
X341099Y312303D01*
X339083Y313467D01*
Y314933D01*
X341099Y316097D01*
X343613Y318611D01*
X345390Y321689D01*
X346310Y325123D01*
Y328677D01*
X345390Y332111D01*
X343613Y335189D01*
X341099Y337703D01*
X339083Y338867D01*
Y340333D01*
X341099Y341497D01*
X343613Y344011D01*
X345390Y347089D01*
X346310Y350523D01*
Y354077D01*
X345390Y357511D01*
X343613Y360589D01*
X341099Y363103D01*
X339083Y364267D01*
Y365733D01*
X341099Y366897D01*
X343613Y369411D01*
X345390Y372489D01*
X346310Y375923D01*
Y379477D01*
X345390Y382911D01*
X343613Y385989D01*
X341099Y388503D01*
X339083Y389667D01*
Y391133D01*
X341099Y392297D01*
X343613Y394811D01*
X345390Y397889D01*
X346310Y401323D01*
Y404877D01*
X345390Y408311D01*
X343613Y411389D01*
X341099Y413903D01*
X338021Y415680D01*
X334587Y416600D01*
D02*
G37*
G36*
X421270Y239019D02*
Y231270D01*
X429019D01*
X428424Y233489D01*
X427234Y235551D01*
X425551Y237234D01*
X423489Y238424D01*
X421270Y239019D01*
D02*
G37*
G36*
X418730D02*
X416511Y238424D01*
X414449Y237234D01*
X412766Y235551D01*
X411576Y233489D01*
X410981Y231270D01*
X418730D01*
Y239019D01*
D02*
G37*
G36*
X334132Y235340D02*
X334080D01*
Y226570D01*
X342850D01*
Y226622D01*
X342166Y229175D01*
X340844Y231465D01*
X338975Y233334D01*
X336685Y234656D01*
X334132Y235340D01*
D02*
G37*
G36*
X331540D02*
X331488D01*
X328935Y234656D01*
X326645Y233334D01*
X324776Y231465D01*
X323454Y229175D01*
X322770Y226622D01*
Y226570D01*
X331540D01*
Y235340D01*
D02*
G37*
G36*
X429019Y228730D02*
X421270D01*
Y220981D01*
X423489Y221576D01*
X425551Y222766D01*
X427234Y224449D01*
X428424Y226511D01*
X429019Y228730D01*
D02*
G37*
G36*
X418730D02*
X410981D01*
X411576Y226511D01*
X412766Y224449D01*
X414449Y222766D01*
X416511Y221576D01*
X418730Y220981D01*
Y228730D01*
D02*
G37*
G36*
X342850Y224030D02*
X334080D01*
Y215260D01*
X334132D01*
X336685Y215944D01*
X338975Y217266D01*
X340844Y219135D01*
X342166Y221425D01*
X342850Y223978D01*
Y224030D01*
D02*
G37*
G36*
X331540D02*
X322770D01*
Y223978D01*
X323454Y221425D01*
X324776Y219135D01*
X326645Y217266D01*
X328935Y215944D01*
X331488Y215260D01*
X331540D01*
Y224030D01*
D02*
G37*
G36*
X334132Y209940D02*
X334080D01*
Y201170D01*
X342850D01*
Y201222D01*
X342166Y203775D01*
X340844Y206065D01*
X338975Y207934D01*
X336685Y209256D01*
X334132Y209940D01*
D02*
G37*
G36*
X331540D02*
X331488D01*
X328935Y209256D01*
X326645Y207934D01*
X324776Y206065D01*
X323454Y203775D01*
X322770Y201222D01*
Y201170D01*
X331540D01*
Y209940D01*
D02*
G37*
G36*
X342850Y198630D02*
X334080D01*
Y189860D01*
X334132D01*
X336685Y190544D01*
X338975Y191866D01*
X340844Y193735D01*
X342166Y196025D01*
X342850Y198578D01*
Y198630D01*
D02*
G37*
G36*
X331540D02*
X322770D01*
Y198578D01*
X323454Y196025D01*
X324776Y193735D01*
X326645Y191866D01*
X328935Y190544D01*
X331488Y189860D01*
X331540D01*
Y198630D01*
D02*
G37*
G36*
X443797Y181250D02*
X440703D01*
X437715Y180449D01*
X435035Y178902D01*
X432848Y176714D01*
X431301Y174035D01*
X430500Y171047D01*
Y167953D01*
X431301Y164965D01*
X432848Y162285D01*
X435035Y160097D01*
X437715Y158551D01*
X440703Y157750D01*
X443797D01*
X446785Y158551D01*
X449465Y160097D01*
X451652Y162285D01*
X453199Y164965D01*
X454000Y167953D01*
Y171047D01*
X453199Y174035D01*
X451652Y176714D01*
X449465Y178902D01*
X446785Y180449D01*
X443797Y181250D01*
D02*
G37*
G36*
X404000D02*
X380500D01*
Y157750D01*
X404000D01*
Y181250D01*
D02*
G37*
G36*
X443797Y135750D02*
X440703D01*
X437715Y134949D01*
X435035Y133402D01*
X432848Y131214D01*
X431301Y128535D01*
X430500Y125547D01*
Y122453D01*
X431301Y119464D01*
X432848Y116785D01*
X435035Y114597D01*
X437715Y113050D01*
X440703Y112250D01*
X443797D01*
X446785Y113050D01*
X449465Y114597D01*
X451652Y116785D01*
X453199Y119464D01*
X454000Y122453D01*
Y125547D01*
X453199Y128535D01*
X451652Y131214D01*
X449465Y133402D01*
X446785Y134949D01*
X443797Y135750D01*
D02*
G37*
G36*
X404000D02*
X380500D01*
Y112250D01*
X404000D01*
Y135750D01*
D02*
G37*
G36*
X444297Y88000D02*
X441203D01*
X438214Y87199D01*
X435535Y85652D01*
X433347Y83464D01*
X431800Y80785D01*
X431000Y77797D01*
Y74703D01*
X431800Y71715D01*
X433347Y69035D01*
X435535Y66847D01*
X438214Y65300D01*
X441203Y64500D01*
X444297D01*
X447285Y65300D01*
X449964Y66847D01*
X452152Y69035D01*
X453699Y71715D01*
X454500Y74703D01*
Y77797D01*
X453699Y80785D01*
X452152Y83464D01*
X449964Y85652D01*
X447285Y87199D01*
X444297Y88000D01*
D02*
G37*
G36*
X404500D02*
X381000D01*
Y64500D01*
X404500D01*
Y88000D01*
D02*
G37*
G36*
X334587Y188000D02*
X331033D01*
X327599Y187080D01*
X324521Y185303D01*
X322007Y182789D01*
X320230Y179711D01*
X319310Y176277D01*
Y172723D01*
X320230Y169289D01*
X322007Y166211D01*
X324521Y163697D01*
X326537Y162533D01*
Y161067D01*
X324521Y159903D01*
X322007Y157389D01*
X320230Y154311D01*
X319310Y150877D01*
Y147323D01*
X320230Y143889D01*
X322007Y140811D01*
X324521Y138297D01*
X326537Y137133D01*
Y135667D01*
X324521Y134503D01*
X322007Y131989D01*
X320230Y128911D01*
X319310Y125477D01*
Y121923D01*
X320230Y118489D01*
X322007Y115411D01*
X324521Y112897D01*
X326537Y111733D01*
Y110267D01*
X324521Y109103D01*
X322007Y106589D01*
X320230Y103511D01*
X319310Y100077D01*
Y96523D01*
X320230Y93089D01*
X322007Y90011D01*
X324521Y87497D01*
X326537Y86333D01*
Y84867D01*
X324521Y83703D01*
X322007Y81189D01*
X320230Y78111D01*
X319310Y74677D01*
Y71123D01*
X320230Y67689D01*
X322007Y64611D01*
X324521Y62097D01*
X327599Y60320D01*
X331033Y59400D01*
X334587D01*
X338021Y60320D01*
X341099Y62097D01*
X343613Y64611D01*
X345390Y67689D01*
X346310Y71123D01*
Y74677D01*
X345390Y78111D01*
X343613Y81189D01*
X341099Y83703D01*
X339083Y84867D01*
Y86333D01*
X341099Y87497D01*
X343613Y90011D01*
X345390Y93089D01*
X346310Y96523D01*
Y100077D01*
X345390Y103511D01*
X343613Y106589D01*
X341099Y109103D01*
X339083Y110267D01*
Y111733D01*
X341099Y112897D01*
X343613Y115411D01*
X345390Y118489D01*
X346310Y121923D01*
Y125477D01*
X345390Y128911D01*
X343613Y131989D01*
X341099Y134503D01*
X339083Y135667D01*
Y137133D01*
X341099Y138297D01*
X343613Y140811D01*
X345390Y143889D01*
X346310Y147323D01*
Y150877D01*
X345390Y154311D01*
X343613Y157389D01*
X341099Y159903D01*
X339083Y161067D01*
Y162533D01*
X341099Y163697D01*
X343613Y166211D01*
X345390Y169289D01*
X346310Y172723D01*
Y176277D01*
X345390Y179711D01*
X343613Y182789D01*
X341099Y185303D01*
X338021Y187080D01*
X334587Y188000D01*
D02*
G37*
G36*
X138500Y438900D02*
X111500D01*
Y434478D01*
X90400D01*
X88051Y434169D01*
X85861Y433262D01*
X83981Y431819D01*
X55091Y402929D01*
X53649Y401049D01*
X52742Y398859D01*
X52432Y396510D01*
Y327150D01*
X48560D01*
Y301250D01*
X74460D01*
Y302047D01*
X75560Y302682D01*
X76512Y302133D01*
X79805Y301250D01*
X83215D01*
X86509Y302133D01*
X89461Y303838D01*
X91510Y305886D01*
X92937Y304459D01*
Y301457D01*
X23938Y232458D01*
X22575Y230683D01*
X21719Y228615D01*
X21427Y226396D01*
Y110429D01*
X21719Y108210D01*
X22575Y106142D01*
X23938Y104367D01*
X34367Y93938D01*
X36142Y92575D01*
X38210Y91719D01*
X40429Y91427D01*
X40429Y91427D01*
X207510D01*
X209729Y91719D01*
X211797Y92575D01*
X213572Y93938D01*
X241982Y122348D01*
X243161Y121731D01*
X244030Y118489D01*
X245807Y115411D01*
X248321Y112897D01*
X250337Y111733D01*
Y110267D01*
X248321Y109103D01*
X245807Y106589D01*
X244030Y103511D01*
X243110Y100077D01*
Y96523D01*
X244030Y93089D01*
X245807Y90011D01*
X248321Y87497D01*
X250337Y86333D01*
Y84867D01*
X248321Y83703D01*
X245807Y81189D01*
X244030Y78111D01*
X243110Y74677D01*
Y71123D01*
X244030Y67689D01*
X245807Y64611D01*
X248321Y62097D01*
X251399Y60320D01*
X254833Y59400D01*
X258387D01*
X261821Y60320D01*
X264899Y62097D01*
X267413Y64611D01*
X269190Y67689D01*
X270110Y71123D01*
Y74677D01*
X269190Y78111D01*
X267413Y81189D01*
X264899Y83703D01*
X262883Y84867D01*
Y86333D01*
X264899Y87497D01*
X267413Y90011D01*
X269190Y93089D01*
X270110Y96523D01*
Y100077D01*
X269190Y103511D01*
X267413Y106589D01*
X264899Y109103D01*
X262883Y110267D01*
Y111733D01*
X264899Y112897D01*
X267413Y115411D01*
X269190Y118489D01*
X270110Y121923D01*
Y125477D01*
X269190Y128911D01*
X267413Y131989D01*
X264899Y134503D01*
X262883Y135667D01*
Y137133D01*
X264899Y138297D01*
X267413Y140811D01*
X269190Y143889D01*
X270110Y147323D01*
Y150877D01*
X269190Y154311D01*
X267413Y157389D01*
X264899Y159903D01*
X262883Y161067D01*
Y162533D01*
X264899Y163697D01*
X267413Y166211D01*
X269190Y169289D01*
X270110Y172723D01*
Y176277D01*
X269190Y179711D01*
X267413Y182789D01*
X264899Y185303D01*
X262883Y186467D01*
Y187933D01*
X264899Y189097D01*
X267413Y191611D01*
X269190Y194689D01*
X270110Y198123D01*
Y201677D01*
X269190Y205111D01*
X267413Y208189D01*
X264899Y210703D01*
X262883Y211867D01*
Y213333D01*
X264899Y214497D01*
X267413Y217011D01*
X269190Y220089D01*
X270110Y223523D01*
Y227077D01*
X269190Y230511D01*
X267413Y233589D01*
X264899Y236103D01*
X261821Y237880D01*
X258387Y238800D01*
X256427D01*
X255977Y239390D01*
X256605Y240660D01*
X257932D01*
X260485Y241344D01*
X262775Y242666D01*
X264644Y244535D01*
X265966Y246825D01*
X266650Y249378D01*
Y249430D01*
X246570D01*
Y249378D01*
X247254Y246825D01*
X248459Y244738D01*
X248187Y244060D01*
X247767Y243548D01*
X247390Y243598D01*
X164078D01*
Y412500D01*
X164078Y412500D01*
X163768Y414850D01*
X162861Y417039D01*
X161419Y418919D01*
X161419Y418919D01*
X148519Y431819D01*
X146639Y433262D01*
X144449Y434169D01*
X142100Y434478D01*
X138500D01*
Y438900D01*
D02*
G37*
%LPD*%
G36*
X111500Y411900D02*
X138500D01*
Y414503D01*
X139673Y414989D01*
X145922Y408740D01*
Y238280D01*
X130520Y222878D01*
X126600D01*
X125675Y223802D01*
X122825Y225448D01*
X123060Y226700D01*
X130500D01*
Y251700D01*
X105500D01*
Y226700D01*
X112941D01*
X113175Y225448D01*
X110325Y223802D01*
X107998Y221475D01*
X106352Y218625D01*
X105500Y215446D01*
Y212154D01*
X106352Y208975D01*
X107998Y206125D01*
X108923Y205200D01*
Y185984D01*
X108673Y184086D01*
Y163778D01*
X101306D01*
X98957Y163469D01*
X96767Y162562D01*
X94887Y161119D01*
X67846Y134078D01*
X66200D01*
Y137950D01*
X65403D01*
X64768Y139050D01*
X65317Y140001D01*
X66200Y143295D01*
Y146705D01*
X65317Y149999D01*
X63612Y152951D01*
X61564Y155000D01*
X63612Y157049D01*
X65317Y160001D01*
X66200Y163295D01*
Y166705D01*
X65317Y169998D01*
X63612Y172951D01*
X61201Y175362D01*
X59534Y176325D01*
X59489Y177818D01*
X60844Y179173D01*
X62093Y181337D01*
X62734Y183730D01*
X53250D01*
X43766D01*
X44407Y181337D01*
X45656Y179173D01*
X47011Y177818D01*
X46966Y176325D01*
X45299Y175362D01*
X42887Y172951D01*
X41182Y169998D01*
X40300Y166705D01*
Y163295D01*
X41182Y160001D01*
X42887Y157049D01*
X44936Y155000D01*
X42887Y152951D01*
X41182Y149999D01*
X40300Y146705D01*
Y143295D01*
X41182Y140001D01*
X41732Y139050D01*
X41097Y137950D01*
X40300D01*
Y114820D01*
X39030Y114188D01*
X38573Y114533D01*
Y222845D01*
X107572Y291844D01*
X108935Y293619D01*
X109791Y295687D01*
X110083Y297906D01*
Y304459D01*
X111873Y306249D01*
X112835Y307916D01*
X114328Y307961D01*
X115683Y306606D01*
X117847Y305357D01*
X120240Y304716D01*
Y314200D01*
Y323685D01*
X117847Y323043D01*
X115683Y321794D01*
X114328Y320439D01*
X112835Y320484D01*
X111873Y322151D01*
X109461Y324563D01*
X106508Y326268D01*
X103215Y327150D01*
X99805D01*
X96511Y326268D01*
X93559Y324563D01*
X91510Y322514D01*
X89461Y324563D01*
X86509Y326268D01*
X83215Y327150D01*
X79805D01*
X76512Y326268D01*
X75560Y325718D01*
X74460Y326353D01*
Y327150D01*
X70588D01*
Y392750D01*
X94160Y416323D01*
X111500D01*
Y411900D01*
D02*
G37*
%LPC*%
G36*
X126322Y410040D02*
X126270D01*
Y401270D01*
X135040D01*
Y401322D01*
X134356Y403876D01*
X133034Y406165D01*
X131165Y408034D01*
X128875Y409356D01*
X126322Y410040D01*
D02*
G37*
G36*
X123730D02*
X123678D01*
X121124Y409356D01*
X118835Y408034D01*
X116966Y406165D01*
X115644Y403876D01*
X114960Y401322D01*
Y401270D01*
X123730D01*
Y410040D01*
D02*
G37*
G36*
X135040Y398730D02*
X126270D01*
Y389960D01*
X126322D01*
X128875Y390644D01*
X131165Y391966D01*
X133034Y393835D01*
X134356Y396125D01*
X135040Y398678D01*
Y398730D01*
D02*
G37*
G36*
X123730D02*
X114960D01*
Y398678D01*
X115644Y396125D01*
X116966Y393835D01*
X118835Y391966D01*
X121124Y390644D01*
X123678Y389960D01*
X123730D01*
Y398730D01*
D02*
G37*
G36*
X122780Y323685D02*
Y315470D01*
X130994D01*
X130353Y317863D01*
X129104Y320027D01*
X127337Y321794D01*
X125173Y323043D01*
X122780Y323685D01*
D02*
G37*
G36*
X130994Y312930D02*
X122780D01*
Y304716D01*
X125173Y305357D01*
X127337Y306606D01*
X129104Y308373D01*
X130353Y310537D01*
X130994Y312930D01*
D02*
G37*
G36*
X54520Y194484D02*
Y186270D01*
X62734D01*
X62093Y188663D01*
X60844Y190827D01*
X59077Y192594D01*
X56913Y193843D01*
X54520Y194484D01*
D02*
G37*
G36*
X51980D02*
X49587Y193843D01*
X47423Y192594D01*
X45656Y190827D01*
X44407Y188663D01*
X43766Y186270D01*
X51980D01*
Y194484D01*
D02*
G37*
%LPD*%
D13*
X415360Y352140D02*
Y363730D01*
X420000Y265000D02*
Y347500D01*
X415360Y352140D02*
X420000Y347500D01*
X281800Y250700D02*
X307200Y225300D01*
X256610Y250700D02*
X281800D01*
X307200Y225300D02*
X332810D01*
X155000Y234520D02*
X247390D01*
X256610Y225300D01*
X155000Y234520D02*
Y412500D01*
X118000Y213800D02*
X134280D01*
X155000Y234520D01*
X142100Y425400D02*
X155000Y412500D01*
X125000Y425400D02*
X142100D01*
X90400D02*
X125000D01*
X61510Y314200D02*
Y396510D01*
X90400Y425400D01*
X121510Y279298D02*
Y316338D01*
X125000Y319828D02*
Y400000D01*
X121510Y316338D02*
X125000Y319828D01*
X53250Y125000D02*
X71606D01*
X53250Y185000D02*
Y211038D01*
X121510Y279298D01*
X101306Y154700D02*
X117750D01*
X71606Y125000D02*
X101306Y154700D01*
X397900Y219600D02*
Y257900D01*
X417500Y200000D02*
X477500D01*
X397900Y219600D02*
X417500Y200000D01*
X477500D02*
X502990Y174510D01*
Y151320D02*
Y174510D01*
X435746Y245746D02*
Y336232D01*
X435360Y336618D02*
Y363730D01*
Y336618D02*
X435746Y336232D01*
X403136Y263136D02*
X418136D01*
X420000Y265000D01*
X420000Y230000D02*
X435746Y245746D01*
X397900Y257900D02*
X403136Y263136D01*
X332810Y199900D02*
Y225300D01*
X118000Y184336D02*
Y213800D01*
X117750Y184086D02*
X118000Y184336D01*
X117750Y154700D02*
Y184086D01*
D15*
X53250Y185000D02*
D03*
Y165000D02*
D03*
Y145000D02*
D03*
X502990Y91320D02*
D03*
Y111320D02*
D03*
Y131320D02*
D03*
X121510Y314200D02*
D03*
X101510D02*
D03*
X81510D02*
D03*
X415360Y363730D02*
D03*
X435360D02*
D03*
D16*
X53250Y125000D02*
D03*
X502990Y151320D02*
D03*
D17*
X420000Y230000D02*
D03*
X117750Y154700D02*
D03*
X118000Y213800D02*
D03*
D18*
X420000Y265000D02*
D03*
X117750Y129300D02*
D03*
X118000Y239200D02*
D03*
D24*
X392750Y76250D02*
D03*
X392250Y169500D02*
D03*
Y124000D02*
D03*
D25*
X442750Y76250D02*
D03*
X184220Y319500D02*
D03*
X442250Y169500D02*
D03*
Y124000D02*
D03*
D28*
X184220Y385100D02*
D03*
D29*
X61510Y314200D02*
D03*
X455360Y363730D02*
D03*
D31*
X30000Y110429D02*
X40429Y100000D01*
X30000Y226396D02*
X101510Y297906D01*
X30000Y110429D02*
Y226396D01*
X40429Y100000D02*
X207510D01*
X256610Y149100D01*
X117750Y129300D02*
X148180D01*
X186760Y167880D01*
X101510Y297906D02*
Y314200D01*
X2500Y487500D02*
X557500D01*
Y2500D02*
Y487500D01*
X2500Y2500D02*
X557500D01*
X2500D02*
Y487500D01*
D32*
X125000Y425400D02*
D03*
D33*
Y400000D02*
D03*
X256610Y377700D02*
D03*
Y352300D02*
D03*
Y326900D02*
D03*
Y301500D02*
D03*
Y276100D02*
D03*
Y250700D02*
D03*
Y225300D02*
D03*
Y199900D02*
D03*
Y174500D02*
D03*
Y149100D02*
D03*
Y123700D02*
D03*
Y98300D02*
D03*
Y72900D02*
D03*
X332810Y403100D02*
D03*
Y377700D02*
D03*
Y352300D02*
D03*
Y326900D02*
D03*
Y301500D02*
D03*
Y276100D02*
D03*
Y250700D02*
D03*
Y225300D02*
D03*
Y199900D02*
D03*
Y174500D02*
D03*
Y149100D02*
D03*
Y123700D02*
D03*
Y98300D02*
D03*
Y72900D02*
D03*
D34*
X186760Y216680D02*
D03*
D35*
Y167880D02*
D03*
D36*
X256610Y403100D02*
D03*
D37*
X25000Y465000D02*
D03*
X535000Y25000D02*
D03*
X25000D02*
D03*
X535000Y465000D02*
D03*
M02*
