G04*
G04 #@! TF.GenerationSoftware,Altium Limited,Altium Designer,22.4.2 (48)*
G04*
G04 Layer_Color=128*
%FSLAX44Y44*%
%MOMM*%
G71*
G04*
G04 #@! TF.SameCoordinates,526C220A-A096-4E3C-8F2C-01EC2D9484EB*
G04*
G04*
G04 #@! TF.FilePolarity,Positive*
G04*
G01*
G75*
%ADD40C,0.1270*%
D40*
X48800Y185000D02*
X57700D01*
X53250Y180550D02*
Y189450D01*
X48800Y165000D02*
X57700D01*
X53250Y160550D02*
Y169450D01*
X48800Y145000D02*
X57700D01*
X53250Y140550D02*
Y149450D01*
X48800Y125000D02*
X57700D01*
X53250Y120550D02*
Y129450D01*
X416000Y230000D02*
X424000D01*
X420000Y226000D02*
Y234000D01*
X416000Y265000D02*
X424000D01*
X420000Y261000D02*
Y269000D01*
X120500Y425400D02*
X129500D01*
X125000Y420900D02*
Y429900D01*
X120500Y400000D02*
X129500D01*
X125000Y395500D02*
Y404500D01*
X498540Y91320D02*
X507440D01*
X502990Y86870D02*
Y95770D01*
X498540Y111320D02*
X507440D01*
X502990Y106870D02*
Y115770D01*
X498540Y131320D02*
X507440D01*
X502990Y126870D02*
Y135770D01*
X498540Y151320D02*
X507440D01*
X502990Y146870D02*
Y155770D01*
X183260Y216680D02*
X190260D01*
X186760Y213180D02*
Y220180D01*
X183260Y167880D02*
X190260D01*
X186760Y164380D02*
Y171380D01*
X252110Y403100D02*
X261110D01*
X256610Y398600D02*
Y407600D01*
X252110Y377700D02*
X261110D01*
X256610Y373200D02*
Y382200D01*
X252110Y352300D02*
X261110D01*
X256610Y347800D02*
Y356800D01*
X252110Y326900D02*
X261110D01*
X256610Y322400D02*
Y331400D01*
X252110Y301500D02*
X261110D01*
X256610Y297000D02*
Y306000D01*
X252110Y276100D02*
X261110D01*
X256610Y271600D02*
Y280600D01*
X252110Y250700D02*
X261110D01*
X256610Y246200D02*
Y255200D01*
X252110Y225300D02*
X261110D01*
X256610Y220800D02*
Y229800D01*
X252110Y199900D02*
X261110D01*
X256610Y195400D02*
Y204400D01*
X252110Y174500D02*
X261110D01*
X256610Y170000D02*
Y179000D01*
X252110Y149100D02*
X261110D01*
X256610Y144600D02*
Y153600D01*
X252110Y123700D02*
X261110D01*
X256610Y119200D02*
Y128200D01*
X252110Y98300D02*
X261110D01*
X256610Y93800D02*
Y102800D01*
X252110Y72900D02*
X261110D01*
X256610Y68400D02*
Y77400D01*
X328310Y403100D02*
X337310D01*
X332810Y398600D02*
Y407600D01*
X328310Y377700D02*
X337310D01*
X332810Y373200D02*
Y382200D01*
X328310Y352300D02*
X337310D01*
X332810Y347800D02*
Y356800D01*
X328310Y326900D02*
X337310D01*
X332810Y322400D02*
Y331400D01*
X328310Y301500D02*
X337310D01*
X332810Y297000D02*
Y306000D01*
X328310Y276100D02*
X337310D01*
X332810Y271600D02*
Y280600D01*
X328310Y250700D02*
X337310D01*
X332810Y246200D02*
Y255200D01*
X328310Y225300D02*
X337310D01*
X332810Y220800D02*
Y229800D01*
X328310Y199900D02*
X337310D01*
X332810Y195400D02*
Y204400D01*
X328310Y174500D02*
X337310D01*
X332810Y170000D02*
Y179000D01*
X328310Y149100D02*
X337310D01*
X332810Y144600D02*
Y153600D01*
X328310Y123700D02*
X337310D01*
X332810Y119200D02*
Y128200D01*
X328310Y98300D02*
X337310D01*
X332810Y93800D02*
Y102800D01*
X328310Y72900D02*
X337310D01*
X332810Y68400D02*
Y77400D01*
X389500Y76250D02*
X396000D01*
X392750Y73000D02*
Y79500D01*
X439500Y76250D02*
X446000D01*
X442750Y73000D02*
Y79500D01*
X113750Y129300D02*
X121750D01*
X117750Y125300D02*
Y133300D01*
X113750Y154700D02*
X121750D01*
X117750Y150700D02*
Y158700D01*
X114000Y239200D02*
X122000D01*
X118000Y235200D02*
Y243200D01*
X114000Y213800D02*
X122000D01*
X118000Y209800D02*
Y217800D01*
X180970Y319500D02*
X187470D01*
X184220Y316250D02*
Y322750D01*
X180970Y385100D02*
X187470D01*
X184220Y381850D02*
Y388350D01*
X117060Y314200D02*
X125960D01*
X121510Y309750D02*
Y318650D01*
X97060Y314200D02*
X105960D01*
X101510Y309750D02*
Y318650D01*
X77060Y314200D02*
X85960D01*
X81510Y309750D02*
Y318650D01*
X57060Y314200D02*
X65960D01*
X61510Y309750D02*
Y318650D01*
X410910Y363730D02*
X419810D01*
X415360Y359280D02*
Y368180D01*
X430910Y363730D02*
X439810D01*
X435360Y359280D02*
Y368180D01*
X450910Y363730D02*
X459810D01*
X455360Y359280D02*
Y368180D01*
X439000Y169500D02*
X445500D01*
X442250Y166250D02*
Y172750D01*
X389000Y169500D02*
X395500D01*
X392250Y166250D02*
Y172750D01*
X439000Y124000D02*
X445500D01*
X442250Y120750D02*
Y127250D01*
X389000Y124000D02*
X395500D01*
X392250Y120750D02*
Y127250D01*
X15000Y465000D02*
X35000D01*
X25000Y455000D02*
Y475000D01*
X525000Y25000D02*
X545000D01*
X535000Y15000D02*
Y35000D01*
X15000Y25000D02*
X35000D01*
X25000Y15000D02*
Y35000D01*
X525000Y465000D02*
X545000D01*
X535000Y455000D02*
Y475000D01*
M02*
