G04*
G04 #@! TF.GenerationSoftware,Altium Limited,Altium Designer,22.4.2 (48)*
G04*
G04 Layer_Color=8388736*
%FSLAX44Y44*%
%MOMM*%
G71*
G04*
G04 #@! TF.SameCoordinates,526C220A-A096-4E3C-8F2C-01EC2D9484EB*
G04*
G04*
G04 #@! TF.FilePolarity,Positive*
G04*
G01*
G75*
%ADD11C,0.1500*%
%ADD12C,0.2000*%
D11*
X462500Y247500D02*
G03*
X462500Y247500I-42500J0D01*
G01*
D12*
X42750Y115000D02*
X63750D01*
Y195000D01*
X42750D02*
X63750D01*
X42750Y115000D02*
Y195000D01*
X492490Y161320D02*
X513490D01*
X492490Y81320D02*
Y161320D01*
Y81320D02*
X513490D01*
Y161320D01*
X399750Y84250D02*
X435750D01*
Y68250D02*
Y84250D01*
X399750Y68250D02*
X435750D01*
X399750D02*
Y84250D01*
X174220Y370300D02*
X194220D01*
X174220Y334300D02*
Y370300D01*
Y334300D02*
X194220D01*
Y370300D01*
X51510Y303700D02*
Y324700D01*
Y303700D02*
X131510D01*
Y324700D01*
X51510D02*
X131510D01*
X465360Y353030D02*
Y374030D01*
X405360D02*
X465360D01*
X405360Y353030D02*
Y374030D01*
Y353030D02*
X465360D01*
X399250Y161500D02*
Y177500D01*
Y161500D02*
X435250D01*
Y177500D01*
X399250D02*
X435250D01*
X399250Y116000D02*
Y132000D01*
Y116000D02*
X435250D01*
Y132000D01*
X399250D02*
X435250D01*
M02*
