G04*
G04 #@! TF.GenerationSoftware,Altium Limited,Altium Designer,22.4.2 (48)*
G04*
G04 Layer_Physical_Order=2*
G04 Layer_Color=16711680*
%FSLAX44Y44*%
%MOMM*%
G71*
G04*
G04 #@! TF.SameCoordinates,526C220A-A096-4E3C-8F2C-01EC2D9484EB*
G04*
G04*
G04 #@! TF.FilePolarity,Positive*
G04*
G01*
G75*
%ADD13C,0.6000*%
%ADD15C,1.3900*%
%ADD16R,1.3900X1.3900*%
%ADD17C,1.3000*%
%ADD18R,1.3000X1.3000*%
%ADD24R,1.1500X1.1500*%
%ADD25C,1.1500*%
%ADD28R,1.1500X1.1500*%
%ADD29R,1.3900X1.3900*%
%ADD31C,0.5000*%
%ADD32R,1.5000X1.5000*%
%ADD33C,1.5000*%
%ADD34C,1.2000*%
%ADD35R,1.2000X1.2000*%
%ADD36R,1.5000X1.5000*%
%ADD37C,2.5000*%
G36*
X537500Y52500D02*
X20000D01*
Y442500D01*
X537500D01*
Y52500D01*
D02*
G37*
%LPC*%
G36*
X135040Y435440D02*
X126270D01*
Y426670D01*
X135040D01*
Y435440D01*
D02*
G37*
G36*
X123730D02*
X114960D01*
Y426670D01*
X123730D01*
Y435440D01*
D02*
G37*
G36*
X135040Y424130D02*
X126270D01*
Y415360D01*
X135040D01*
Y424130D01*
D02*
G37*
G36*
X123730D02*
X114960D01*
Y415360D01*
X123730D01*
Y424130D01*
D02*
G37*
G36*
X126777Y413500D02*
X123223D01*
X119789Y412580D01*
X116711Y410803D01*
X114197Y408289D01*
X112420Y405211D01*
X111500Y401777D01*
Y398223D01*
X112420Y394789D01*
X114197Y391711D01*
X116711Y389198D01*
X119789Y387420D01*
X123223Y386500D01*
X126777D01*
X130211Y387420D01*
X133289Y389198D01*
X135802Y391711D01*
X137580Y394789D01*
X138500Y398223D01*
Y401777D01*
X137580Y405211D01*
X135802Y408289D01*
X133289Y410803D01*
X130211Y412580D01*
X126777Y413500D01*
D02*
G37*
G36*
X414090Y373214D02*
X411697Y372573D01*
X409533Y371324D01*
X407766Y369557D01*
X406517Y367393D01*
X405876Y365000D01*
X414090D01*
Y373214D01*
D02*
G37*
G36*
Y362460D02*
X405876D01*
X406517Y360067D01*
X407766Y357903D01*
X409533Y356136D01*
X411697Y354887D01*
X414090Y354246D01*
Y362460D01*
D02*
G37*
G36*
X421070Y427863D02*
X309000D01*
X306781Y427571D01*
X304713Y426715D01*
X302938Y425352D01*
X288714Y411128D01*
X287351Y409353D01*
X286495Y407285D01*
X286203Y405066D01*
Y343217D01*
X271237Y328252D01*
X270058Y328869D01*
X269190Y332111D01*
X267413Y335189D01*
X264899Y337703D01*
X262883Y338867D01*
Y340333D01*
X264899Y341497D01*
X267413Y344011D01*
X269190Y347089D01*
X270110Y350523D01*
Y354077D01*
X269190Y357511D01*
X267413Y360589D01*
X264899Y363103D01*
X262883Y364267D01*
Y365733D01*
X264899Y366897D01*
X267413Y369411D01*
X269190Y372489D01*
X270110Y375923D01*
Y379477D01*
X269190Y382911D01*
X267413Y385989D01*
X265072Y388330D01*
X265316Y389600D01*
X270110D01*
Y416600D01*
X243110D01*
Y411673D01*
X202220D01*
X200001Y411381D01*
X197933Y410525D01*
X196158Y409162D01*
X183845Y396850D01*
X172470D01*
Y373350D01*
X195970D01*
Y384725D01*
X205771Y394527D01*
X243110D01*
Y389600D01*
X247904D01*
X248148Y388330D01*
X245807Y385989D01*
X244030Y382911D01*
X243110Y379477D01*
Y375923D01*
X244030Y372489D01*
X245807Y369411D01*
X248321Y366897D01*
X250337Y365733D01*
Y364267D01*
X248321Y363103D01*
X245807Y360589D01*
X244030Y357511D01*
X243110Y354077D01*
Y350523D01*
X244030Y347089D01*
X245807Y344011D01*
X248321Y341497D01*
X250337Y340333D01*
Y338867D01*
X248321Y337703D01*
X245807Y335189D01*
X244030Y332111D01*
X243110Y328677D01*
Y325123D01*
X244030Y321689D01*
X245807Y318611D01*
X248321Y316097D01*
X250337Y314933D01*
Y313467D01*
X248321Y312303D01*
X245807Y309789D01*
X244030Y306711D01*
X243110Y303277D01*
Y299723D01*
X244030Y296289D01*
X245807Y293211D01*
X248321Y290697D01*
X250337Y289533D01*
Y288067D01*
X248321Y286903D01*
X245807Y284389D01*
X244030Y281311D01*
X243110Y277877D01*
Y274323D01*
X244030Y270889D01*
X245807Y267811D01*
X248321Y265297D01*
X250337Y264133D01*
Y262667D01*
X248321Y261503D01*
X246596Y259778D01*
X230560D01*
X193298Y297040D01*
Y311961D01*
X193622Y312285D01*
X195169Y314965D01*
X195970Y317953D01*
Y321047D01*
X195169Y324035D01*
X193622Y326715D01*
X191435Y328902D01*
X188755Y330449D01*
X185767Y331250D01*
X185308D01*
X180139Y336419D01*
X178259Y337862D01*
X176069Y338768D01*
X173720Y339078D01*
X130000D01*
X127650Y338768D01*
X125461Y337862D01*
X123581Y336419D01*
X116603Y329440D01*
X115160Y327560D01*
X114253Y325371D01*
X114195Y324930D01*
X113558Y324563D01*
X111510Y322514D01*
X109461Y324563D01*
X106508Y326268D01*
X103215Y327150D01*
X99805D01*
X96511Y326268D01*
X93559Y324563D01*
X91510Y322514D01*
X89461Y324563D01*
X86509Y326268D01*
X83215Y327150D01*
X79805D01*
X76512Y326268D01*
X73559Y324563D01*
X72270Y323274D01*
X71000Y323690D01*
Y323690D01*
X62780D01*
Y314200D01*
Y304710D01*
X71000D01*
Y304710D01*
X71891Y305002D01*
X72937Y304152D01*
Y217012D01*
X73229Y214793D01*
X74085Y212725D01*
X75448Y210950D01*
X94150Y192248D01*
X95925Y190885D01*
X97993Y190029D01*
X100212Y189737D01*
X127649D01*
X132639Y184747D01*
X132153Y183573D01*
X95734D01*
X95734Y183573D01*
X93515Y183281D01*
X91447Y182425D01*
X89672Y181062D01*
X82183Y173573D01*
X62991D01*
X61564Y175000D01*
X63612Y177048D01*
X65317Y180001D01*
X66200Y183295D01*
Y186705D01*
X65317Y189998D01*
X63612Y192951D01*
X61201Y195362D01*
X58248Y197067D01*
X54955Y197950D01*
X51545D01*
X48251Y197067D01*
X45299Y195362D01*
X42887Y192951D01*
X41182Y189998D01*
X40300Y186705D01*
Y183295D01*
X41182Y180001D01*
X42887Y177048D01*
X44936Y175000D01*
X42887Y172951D01*
X41182Y169998D01*
X40300Y166705D01*
Y163295D01*
X41182Y160001D01*
X42887Y157049D01*
X44936Y155000D01*
X42887Y152951D01*
X41182Y149999D01*
X40300Y146705D01*
Y143295D01*
X41182Y140001D01*
X42887Y137049D01*
X44176Y135760D01*
X43760Y134490D01*
X43760D01*
Y126270D01*
X53250D01*
X62740D01*
Y134490D01*
X62740D01*
X62448Y135381D01*
X63298Y136427D01*
X68183D01*
X137772Y66838D01*
X139547Y65475D01*
X141615Y64619D01*
X143834Y64327D01*
X246091D01*
X248321Y62097D01*
X251399Y60320D01*
X254833Y59400D01*
X258387D01*
X261821Y60320D01*
X264899Y62097D01*
X267413Y64611D01*
X269190Y67689D01*
X270110Y71123D01*
Y74677D01*
X269190Y78111D01*
X267413Y81189D01*
X264899Y83703D01*
X262883Y84867D01*
Y86333D01*
X264899Y87497D01*
X267413Y90011D01*
X269190Y93089D01*
X270110Y96523D01*
Y100077D01*
X269190Y103511D01*
X267413Y106589D01*
X264899Y109103D01*
X262883Y110267D01*
Y111733D01*
X264899Y112897D01*
X267413Y115411D01*
X269190Y118489D01*
X270110Y121923D01*
Y125477D01*
X269190Y128911D01*
X267413Y131989D01*
X264899Y134503D01*
X262883Y135667D01*
Y137133D01*
X264899Y138297D01*
X267413Y140811D01*
X269190Y143889D01*
X270110Y147323D01*
Y150877D01*
X269190Y154311D01*
X267413Y157389D01*
X264899Y159903D01*
X262883Y161067D01*
Y162533D01*
X264899Y163697D01*
X267413Y166211D01*
X269190Y169289D01*
X270110Y172723D01*
Y176277D01*
X269190Y179711D01*
X267413Y182789D01*
X264899Y185303D01*
X262883Y186467D01*
Y187933D01*
X264899Y189097D01*
X267413Y191611D01*
X269190Y194689D01*
X270110Y198123D01*
Y201677D01*
X269190Y205111D01*
X267413Y208189D01*
X264899Y210703D01*
X261821Y212480D01*
X258387Y213400D01*
X254833D01*
X251399Y212480D01*
X248321Y210703D01*
X246091Y208473D01*
X207091D01*
X198760Y216804D01*
Y218260D01*
X197942Y221312D01*
X196362Y224048D01*
X194128Y226282D01*
X191392Y227862D01*
X188340Y228680D01*
X185180D01*
X182128Y227862D01*
X179392Y226282D01*
X178363Y225253D01*
X144072D01*
X130500Y238825D01*
Y251700D01*
X105500D01*
Y226700D01*
X118376D01*
X121554Y223521D01*
X120897Y222383D01*
X119270Y222819D01*
Y215070D01*
X127019D01*
X126583Y216697D01*
X127722Y217354D01*
X134458Y210618D01*
X136234Y209255D01*
X138301Y208399D01*
X140520Y208106D01*
X178363D01*
X179392Y207077D01*
X182128Y205498D01*
X185180Y204680D01*
X186635D01*
X197477Y193838D01*
X199253Y192475D01*
X201321Y191619D01*
X203540Y191327D01*
X246091D01*
X248321Y189097D01*
X250337Y187933D01*
Y186467D01*
X248321Y185303D01*
X246091Y183073D01*
X193380D01*
X191161Y182781D01*
X189094Y181925D01*
X187318Y180562D01*
X186635Y179880D01*
X174760D01*
Y168534D01*
X173587Y168048D01*
X137262Y204372D01*
X135487Y205735D01*
X133419Y206591D01*
X131200Y206883D01*
X125527D01*
X125041Y208057D01*
X125234Y208249D01*
X126424Y210311D01*
X127019Y212530D01*
X118000D01*
X108982D01*
X109576Y210311D01*
X110766Y208249D01*
X110959Y208057D01*
X110473Y206883D01*
X103763D01*
X90083Y220563D01*
Y304459D01*
X91510Y305886D01*
X93559Y303838D01*
X96511Y302133D01*
X99805Y301250D01*
X103215D01*
X106508Y302133D01*
X109461Y303838D01*
X111510Y305886D01*
X113558Y303838D01*
X116511Y302133D01*
X119805Y301250D01*
X123215D01*
X126508Y302133D01*
X129461Y303838D01*
X131873Y306249D01*
X133577Y309202D01*
X134460Y312495D01*
Y315905D01*
X133577Y319198D01*
X133176Y319895D01*
X133967Y320922D01*
X169960D01*
X172470Y318412D01*
Y317953D01*
X173271Y314965D01*
X174818Y312285D01*
X175142Y311961D01*
Y293280D01*
X175452Y290931D01*
X176359Y288741D01*
X177801Y286861D01*
X220381Y244281D01*
X220381Y244281D01*
X222261Y242839D01*
X224450Y241932D01*
X226800Y241622D01*
X226800Y241622D01*
X246596D01*
X248321Y239897D01*
X251399Y238120D01*
X254833Y237200D01*
X258387D01*
X261821Y238120D01*
X264899Y239897D01*
X267413Y242411D01*
X269190Y245489D01*
X270110Y248923D01*
Y252477D01*
X269190Y255911D01*
X267413Y258989D01*
X264899Y261503D01*
X262883Y262667D01*
Y264133D01*
X264899Y265297D01*
X267413Y267811D01*
X269190Y270889D01*
X270110Y274323D01*
Y277877D01*
X269190Y281311D01*
X267413Y284389D01*
X264899Y286903D01*
X262883Y288067D01*
Y289533D01*
X264899Y290697D01*
X267413Y293211D01*
X269190Y296289D01*
X270110Y299723D01*
Y302875D01*
X300838Y333604D01*
X302201Y335379D01*
X303057Y337447D01*
X303349Y339666D01*
Y401515D01*
X312551Y410717D01*
X320349D01*
X320984Y409617D01*
X320230Y408311D01*
X319310Y404877D01*
Y401323D01*
X320230Y397889D01*
X322007Y394811D01*
X324521Y392297D01*
X326537Y391133D01*
Y389667D01*
X324521Y388503D01*
X322007Y385989D01*
X320230Y382911D01*
X319310Y379477D01*
Y375923D01*
X320230Y372489D01*
X322007Y369411D01*
X324521Y366897D01*
X326537Y365733D01*
Y364267D01*
X324521Y363103D01*
X322007Y360589D01*
X320230Y357511D01*
X319310Y354077D01*
Y350523D01*
X320230Y347089D01*
X322007Y344011D01*
X324521Y341497D01*
X326537Y340333D01*
Y338867D01*
X324521Y337703D01*
X322007Y335189D01*
X320230Y332111D01*
X319310Y328677D01*
Y325123D01*
X320230Y321689D01*
X322007Y318611D01*
X324521Y316097D01*
X326537Y314933D01*
Y313467D01*
X324521Y312303D01*
X322007Y309789D01*
X320230Y306711D01*
X319310Y303277D01*
Y299723D01*
X320230Y296289D01*
X322007Y293211D01*
X324521Y290697D01*
X326537Y289533D01*
Y288067D01*
X324521Y286903D01*
X322007Y284389D01*
X320230Y281311D01*
X319310Y277877D01*
Y274323D01*
X320230Y270889D01*
X322007Y267811D01*
X324521Y265297D01*
X327599Y263520D01*
X331033Y262600D01*
X334587D01*
X338021Y263520D01*
X341099Y265297D01*
X343613Y267811D01*
X345390Y270889D01*
X346310Y274323D01*
Y277877D01*
X345390Y281311D01*
X343613Y284389D01*
X341099Y286903D01*
X339083Y288067D01*
Y289533D01*
X341099Y290697D01*
X343613Y293211D01*
X345390Y296289D01*
X346310Y299723D01*
Y303277D01*
X345390Y306711D01*
X343613Y309789D01*
X341099Y312303D01*
X339083Y313467D01*
Y314933D01*
X341099Y316097D01*
X343613Y318611D01*
X345390Y321689D01*
X346310Y325123D01*
Y328677D01*
X345390Y332111D01*
X343613Y335189D01*
X341099Y337703D01*
X339083Y338867D01*
Y340333D01*
X341099Y341497D01*
X343613Y344011D01*
X345390Y347089D01*
X346310Y350523D01*
Y354077D01*
X345390Y357511D01*
X343613Y360589D01*
X341099Y363103D01*
X339083Y364267D01*
Y365733D01*
X341099Y366897D01*
X343613Y369411D01*
X345390Y372489D01*
X346310Y375923D01*
Y379477D01*
X345390Y382911D01*
X343613Y385989D01*
X341099Y388503D01*
X339083Y389667D01*
Y391133D01*
X341099Y392297D01*
X343613Y394811D01*
X345390Y397889D01*
X346310Y401323D01*
Y404877D01*
X345390Y408311D01*
X344636Y409617D01*
X345271Y410717D01*
X417519D01*
X446786Y381449D01*
Y376680D01*
X442410D01*
Y375883D01*
X441310Y375248D01*
X440358Y375798D01*
X437065Y376680D01*
X433655D01*
X430361Y375798D01*
X427408Y374093D01*
X424997Y371682D01*
X424035Y370014D01*
X422542Y369969D01*
X421187Y371324D01*
X419023Y372573D01*
X416630Y373214D01*
Y363730D01*
Y354246D01*
X419023Y354887D01*
X421187Y356136D01*
X422542Y357491D01*
X424035Y357446D01*
X424997Y355779D01*
X427408Y353368D01*
X430361Y351663D01*
X433655Y350780D01*
X437065D01*
X440358Y351663D01*
X441310Y352212D01*
X442410Y351577D01*
Y350780D01*
X468310D01*
Y376680D01*
X463933D01*
Y385000D01*
X463641Y387219D01*
X462785Y389287D01*
X461422Y391062D01*
X427132Y425352D01*
X425357Y426715D01*
X423289Y427571D01*
X421070Y427863D01*
D02*
G37*
G36*
X60240Y323690D02*
X52020D01*
Y315470D01*
X60240D01*
Y323690D01*
D02*
G37*
G36*
Y312930D02*
X52020D01*
Y304710D01*
X60240D01*
Y312930D01*
D02*
G37*
G36*
X429040Y274040D02*
X421270D01*
Y266270D01*
X429040D01*
Y274040D01*
D02*
G37*
G36*
X418730D02*
X410960D01*
Y266270D01*
X418730D01*
Y274040D01*
D02*
G37*
G36*
X429040Y263730D02*
X421270D01*
Y255960D01*
X429040D01*
Y263730D01*
D02*
G37*
G36*
X418730D02*
X410960D01*
Y255960D01*
X418730D01*
Y263730D01*
D02*
G37*
G36*
X334132Y260740D02*
X334080D01*
Y251970D01*
X342850D01*
Y252022D01*
X342166Y254575D01*
X340844Y256865D01*
X338975Y258734D01*
X336685Y260056D01*
X334132Y260740D01*
D02*
G37*
G36*
X331540D02*
X331488D01*
X328935Y260056D01*
X326645Y258734D01*
X324776Y256865D01*
X323454Y254575D01*
X322770Y252022D01*
Y251970D01*
X331540D01*
Y260740D01*
D02*
G37*
G36*
X357500Y256578D02*
X355150Y256268D01*
X352961Y255361D01*
X351081Y253919D01*
X343148Y245985D01*
X342131Y246765D01*
X342166Y246825D01*
X342850Y249378D01*
Y249430D01*
X334080D01*
Y240660D01*
X334132D01*
X336685Y241344D01*
X336745Y241379D01*
X337525Y240362D01*
X335672Y238509D01*
X334587Y238800D01*
X331033D01*
X327599Y237880D01*
X324521Y236103D01*
X322007Y233589D01*
X320230Y230511D01*
X319310Y227077D01*
Y223523D01*
X320230Y220089D01*
X322007Y217011D01*
X324521Y214497D01*
X326537Y213333D01*
Y211867D01*
X324521Y210703D01*
X322007Y208189D01*
X320230Y205111D01*
X319310Y201677D01*
Y198123D01*
X320230Y194689D01*
X322007Y191611D01*
X324521Y189097D01*
X326537Y187933D01*
Y186467D01*
X324521Y185303D01*
X322007Y182789D01*
X320230Y179711D01*
X319310Y176277D01*
Y172723D01*
X320230Y169289D01*
X322007Y166211D01*
X324521Y163697D01*
X326537Y162533D01*
Y161067D01*
X324521Y159903D01*
X322007Y157389D01*
X320230Y154311D01*
X319310Y150877D01*
Y147323D01*
X320230Y143889D01*
X322007Y140811D01*
X324521Y138297D01*
X326537Y137133D01*
Y135667D01*
X324521Y134503D01*
X322007Y131989D01*
X320230Y128911D01*
X319310Y125477D01*
Y121923D01*
X320230Y118489D01*
X322007Y115411D01*
X324521Y112897D01*
X326537Y111733D01*
Y110267D01*
X324521Y109103D01*
X322007Y106589D01*
X320230Y103511D01*
X319310Y100077D01*
Y96523D01*
X320230Y93089D01*
X322007Y90011D01*
X324521Y87497D01*
X326537Y86333D01*
Y84867D01*
X324521Y83703D01*
X322007Y81189D01*
X320230Y78111D01*
X319310Y74677D01*
Y71123D01*
X320230Y67689D01*
X322007Y64611D01*
X324521Y62097D01*
X327599Y60320D01*
X331033Y59400D01*
X334587D01*
X336265Y59850D01*
X337177Y58938D01*
X338952Y57575D01*
X341020Y56719D01*
X343239Y56427D01*
X381500D01*
X383719Y56719D01*
X385787Y57575D01*
X387562Y58938D01*
X393124Y64500D01*
X404500D01*
Y88000D01*
X381000D01*
Y76624D01*
X377949Y73573D01*
X346790D01*
X346310Y74054D01*
Y74677D01*
X345390Y78111D01*
X343613Y81189D01*
X341099Y83703D01*
X339083Y84867D01*
Y86333D01*
X341099Y87497D01*
X343328Y89727D01*
X366550D01*
X368769Y90019D01*
X370837Y90875D01*
X372613Y92238D01*
X392625Y112250D01*
X404000D01*
Y135750D01*
X380500D01*
Y124374D01*
X362999Y106873D01*
X343328D01*
X341099Y109103D01*
X339083Y110267D01*
Y111733D01*
X341099Y112897D01*
X343613Y115411D01*
X345390Y118489D01*
X346310Y121923D01*
Y125076D01*
X379428Y158194D01*
X380500Y157750D01*
Y157750D01*
X404000D01*
Y181250D01*
X380500D01*
Y178073D01*
X378610D01*
X376391Y177781D01*
X374323Y176924D01*
X372547Y175562D01*
X347437Y150452D01*
X346259Y151069D01*
X345390Y154311D01*
X343613Y157389D01*
X341099Y159903D01*
X339083Y161067D01*
Y162533D01*
X341099Y163697D01*
X343613Y166211D01*
X345390Y169289D01*
X346310Y172723D01*
Y176277D01*
X345390Y179711D01*
X343613Y182789D01*
X341099Y185303D01*
X339083Y186467D01*
Y187933D01*
X341099Y189097D01*
X343613Y191611D01*
X345390Y194689D01*
X346310Y198123D01*
Y201677D01*
X345390Y205111D01*
X343613Y208189D01*
X341099Y210703D01*
X339083Y211867D01*
Y213333D01*
X341099Y214497D01*
X343613Y217011D01*
X345390Y220089D01*
X346291Y223454D01*
X361260Y238422D01*
X398740D01*
X407500Y229662D01*
Y228354D01*
X408352Y225175D01*
X409998Y222325D01*
X412325Y219998D01*
X415175Y218352D01*
X418354Y217500D01*
X421646D01*
X424825Y218352D01*
X427675Y219998D01*
X430003Y222325D01*
X431648Y225175D01*
X432500Y228354D01*
Y231646D01*
X431648Y234825D01*
X430003Y237675D01*
X427675Y240002D01*
X424825Y241648D01*
X421646Y242500D01*
X420338D01*
X408919Y253919D01*
X407039Y255361D01*
X404850Y256268D01*
X402500Y256578D01*
X357500D01*
X357500Y256578D01*
D02*
G37*
G36*
X331540Y249430D02*
X322770D01*
Y249378D01*
X323454Y246825D01*
X324776Y244535D01*
X326645Y242666D01*
X328935Y241344D01*
X331488Y240660D01*
X331540D01*
Y249430D01*
D02*
G37*
G36*
X257932Y235340D02*
X257880D01*
Y226570D01*
X266650D01*
Y226622D01*
X265966Y229175D01*
X264644Y231465D01*
X262775Y233334D01*
X260485Y234656D01*
X257932Y235340D01*
D02*
G37*
G36*
X255340D02*
X255288D01*
X252735Y234656D01*
X250445Y233334D01*
X248576Y231465D01*
X247254Y229175D01*
X246570Y226622D01*
Y226570D01*
X255340D01*
Y235340D01*
D02*
G37*
G36*
X266650Y224030D02*
X257880D01*
Y215260D01*
X257932D01*
X260485Y215944D01*
X262775Y217266D01*
X264644Y219135D01*
X265966Y221425D01*
X266650Y223978D01*
Y224030D01*
D02*
G37*
G36*
X255340D02*
X246570D01*
Y223978D01*
X247254Y221425D01*
X248576Y219135D01*
X250445Y217266D01*
X252735Y215944D01*
X255288Y215260D01*
X255340D01*
Y224030D01*
D02*
G37*
G36*
X116730Y222819D02*
X114511Y222224D01*
X112449Y221034D01*
X110766Y219351D01*
X109576Y217289D01*
X108982Y215070D01*
X116730D01*
Y222819D01*
D02*
G37*
G36*
X512480Y160810D02*
X504260D01*
Y152590D01*
X512480D01*
Y160810D01*
D02*
G37*
G36*
X501720D02*
X493500D01*
Y152590D01*
X501720D01*
Y160810D01*
D02*
G37*
G36*
X443797Y181250D02*
X440703D01*
X437715Y180449D01*
X435035Y178902D01*
X432848Y176714D01*
X431301Y174035D01*
X430500Y171047D01*
Y167953D01*
X431301Y164965D01*
X432848Y162285D01*
X435035Y160097D01*
X437715Y158551D01*
X440703Y157750D01*
X441875D01*
X474367Y125258D01*
X476143Y123895D01*
X478211Y123039D01*
X480430Y122747D01*
X493249D01*
X494676Y121320D01*
X493249Y119893D01*
X458481D01*
X454000Y124374D01*
Y125547D01*
X453199Y128535D01*
X451652Y131214D01*
X449465Y133402D01*
X446785Y134949D01*
X443797Y135750D01*
X440703D01*
X437715Y134949D01*
X435035Y133402D01*
X432848Y131214D01*
X431301Y128535D01*
X430500Y125547D01*
Y122453D01*
X431301Y119464D01*
X432848Y116785D01*
X435035Y114597D01*
X437715Y113050D01*
X440703Y112250D01*
X441875D01*
X448867Y105258D01*
X450643Y103895D01*
X452711Y103039D01*
X454930Y102747D01*
X493249D01*
X494676Y101320D01*
X493249Y99894D01*
X457820D01*
X455601Y99601D01*
X453533Y98745D01*
X451758Y97382D01*
X442375Y88000D01*
X441203D01*
X438214Y87199D01*
X435535Y85652D01*
X433347Y83464D01*
X431800Y80785D01*
X431000Y77797D01*
Y74703D01*
X431800Y71715D01*
X433347Y69035D01*
X435535Y66847D01*
X438214Y65300D01*
X441203Y64500D01*
X444297D01*
X447285Y65300D01*
X449964Y66847D01*
X452152Y69035D01*
X453699Y71715D01*
X454500Y74703D01*
Y75875D01*
X461371Y82747D01*
X493249D01*
X495038Y80957D01*
X497991Y79253D01*
X501285Y78370D01*
X504695D01*
X507989Y79253D01*
X510941Y80957D01*
X513353Y83369D01*
X515057Y86322D01*
X515940Y89615D01*
Y93025D01*
X515057Y96319D01*
X513353Y99272D01*
X511304Y101320D01*
X513353Y103369D01*
X515057Y106322D01*
X515940Y109615D01*
Y113025D01*
X515057Y116319D01*
X513353Y119271D01*
X511304Y121320D01*
X513353Y123369D01*
X515057Y126321D01*
X515940Y129615D01*
Y133025D01*
X515057Y136319D01*
X513353Y139271D01*
X512064Y140560D01*
X512480Y141830D01*
X512480D01*
Y150050D01*
X502990D01*
X493500D01*
Y141830D01*
X493500D01*
X493792Y140939D01*
X492942Y139893D01*
X483981D01*
X454000Y169874D01*
Y171047D01*
X453199Y174035D01*
X451652Y176714D01*
X449465Y178902D01*
X446785Y180449D01*
X443797Y181250D01*
D02*
G37*
G36*
X62740Y123730D02*
X54520D01*
Y115510D01*
X62740D01*
Y123730D01*
D02*
G37*
G36*
X51980D02*
X43760D01*
Y115510D01*
X51980D01*
Y123730D01*
D02*
G37*
%LPD*%
G36*
X207368Y92238D02*
X209143Y90875D01*
X211211Y90019D01*
X213430Y89727D01*
X246091D01*
X248321Y87497D01*
X250337Y86333D01*
Y84867D01*
X248321Y83703D01*
X246091Y81473D01*
X147385D01*
X113232Y115627D01*
X113718Y116800D01*
X130250D01*
Y141800D01*
X105250D01*
Y125268D01*
X104077Y124782D01*
X77796Y151062D01*
X76021Y152425D01*
X73953Y153281D01*
X71734Y153573D01*
X62991D01*
X61564Y155000D01*
X62991Y156427D01*
X85734D01*
X87953Y156719D01*
X90021Y157575D01*
X91796Y158938D01*
X99285Y166427D01*
X133179D01*
X207368Y92238D01*
D02*
G37*
%LPC*%
G36*
X119020Y163719D02*
Y155970D01*
X126769D01*
X126174Y158189D01*
X124984Y160251D01*
X123301Y161934D01*
X121240Y163124D01*
X119020Y163719D01*
D02*
G37*
G36*
X116480D02*
X114261Y163124D01*
X112199Y161934D01*
X110516Y160251D01*
X109326Y158189D01*
X108732Y155970D01*
X116480D01*
Y163719D01*
D02*
G37*
G36*
X126769Y153430D02*
X119020D01*
Y145682D01*
X121240Y146276D01*
X123301Y147466D01*
X124984Y149150D01*
X126174Y151211D01*
X126769Y153430D01*
D02*
G37*
G36*
X116480D02*
X108732D01*
X109326Y151211D01*
X110516Y149150D01*
X112199Y147466D01*
X114261Y146276D01*
X116480Y145682D01*
Y153430D01*
D02*
G37*
%LPD*%
D13*
X402500Y247500D02*
X420000Y230000D01*
X347110Y265000D02*
X420000D01*
X332810Y250700D02*
X347110Y265000D01*
X357500Y247500D02*
X402500D01*
X339722Y229722D02*
X357500Y247500D01*
X339668Y229722D02*
X339722D01*
X335245Y225300D02*
X339668Y229722D01*
X332810Y225300D02*
X335245D01*
X256610D02*
X282800D01*
X308200Y250700D02*
X332810D01*
X282800Y225300D02*
X308200Y250700D01*
X121510Y314200D02*
X123021Y315712D01*
Y323022D01*
X130000Y330000D01*
X173720D01*
X184220Y319500D01*
Y293280D02*
Y319500D01*
X226800Y250700D02*
X256610D01*
X184220Y293280D02*
X226800Y250700D01*
D15*
X53250Y185000D02*
D03*
Y165000D02*
D03*
Y145000D02*
D03*
X502990Y91320D02*
D03*
Y111320D02*
D03*
Y131320D02*
D03*
X121510Y314200D02*
D03*
X101510D02*
D03*
X81510D02*
D03*
X415360Y363730D02*
D03*
X435360D02*
D03*
D16*
X53250Y125000D02*
D03*
X502990Y151320D02*
D03*
D17*
X420000Y230000D02*
D03*
X117750Y154700D02*
D03*
X118000Y213800D02*
D03*
D18*
X420000Y265000D02*
D03*
X117750Y129300D02*
D03*
X118000Y239200D02*
D03*
D24*
X392750Y76250D02*
D03*
X392250Y169500D02*
D03*
Y124000D02*
D03*
D25*
X442750Y76250D02*
D03*
X184220Y319500D02*
D03*
X442250Y169500D02*
D03*
Y124000D02*
D03*
D28*
X184220Y385100D02*
D03*
D29*
X61510Y314200D02*
D03*
X455360Y363730D02*
D03*
D31*
X53250Y145000D02*
X71734D01*
X53250Y165000D02*
X85734D01*
X213430Y98300D02*
X256610D01*
X136730Y175000D02*
X213430Y98300D01*
X95734Y175000D02*
X136730D01*
X85734Y165000D02*
X95734Y175000D01*
X143834Y72900D02*
X256610D01*
X71734Y145000D02*
X143834Y72900D01*
X381500Y65000D02*
X392750Y76250D01*
X335339Y72900D02*
X343239Y65000D01*
X381500D01*
X332810Y72900D02*
X335339D01*
X202220Y403100D02*
X256610D01*
X184220Y385100D02*
X202220Y403100D01*
X140520Y216680D02*
X186760D01*
X118000Y239200D02*
X140520Y216680D01*
X203540Y199900D02*
X256610D01*
X186760Y216680D02*
X203540Y199900D01*
X193380Y174500D02*
X256610D01*
X186760Y167880D02*
X193380Y174500D01*
X457820Y91320D02*
X502990D01*
X442750Y76250D02*
X457820Y91320D01*
X454930Y111320D02*
X502990D01*
X442250Y124000D02*
X454930Y111320D01*
X332810Y123700D02*
X378610Y169500D01*
X392250D01*
X81510Y217012D02*
Y314200D01*
Y217012D02*
X100212Y198310D01*
X131200D01*
X205810Y123700D01*
X256610D01*
X442250Y169500D02*
X480430Y131320D01*
X502990D01*
X332810Y98300D02*
X366550D01*
X392250Y124000D01*
X455360Y363730D02*
Y385000D01*
X421070Y419290D02*
X455360Y385000D01*
X309000Y419290D02*
X421070D01*
X294776Y405066D02*
X309000Y419290D01*
X294776Y339666D02*
Y405066D01*
X256610Y301500D02*
X294776Y339666D01*
X2500Y487500D02*
X557500D01*
Y2500D02*
Y487500D01*
X2500Y2500D02*
X557500D01*
X2500D02*
Y487500D01*
D32*
X125000Y425400D02*
D03*
D33*
Y400000D02*
D03*
X256610Y377700D02*
D03*
Y352300D02*
D03*
Y326900D02*
D03*
Y301500D02*
D03*
Y276100D02*
D03*
Y250700D02*
D03*
Y225300D02*
D03*
Y199900D02*
D03*
Y174500D02*
D03*
Y149100D02*
D03*
Y123700D02*
D03*
Y98300D02*
D03*
Y72900D02*
D03*
X332810Y403100D02*
D03*
Y377700D02*
D03*
Y352300D02*
D03*
Y326900D02*
D03*
Y301500D02*
D03*
Y276100D02*
D03*
Y250700D02*
D03*
Y225300D02*
D03*
Y199900D02*
D03*
Y174500D02*
D03*
Y149100D02*
D03*
Y123700D02*
D03*
Y98300D02*
D03*
Y72900D02*
D03*
D34*
X186760Y216680D02*
D03*
D35*
Y167880D02*
D03*
D36*
X256610Y403100D02*
D03*
D37*
X25000Y465000D02*
D03*
X535000Y25000D02*
D03*
X25000D02*
D03*
X535000Y465000D02*
D03*
M02*
