G04*
G04 #@! TF.GenerationSoftware,Altium Limited,Altium Designer,22.4.2 (48)*
G04*
G04 Layer_Color=65535*
%FSLAX44Y44*%
%MOMM*%
G71*
G04*
G04 #@! TF.SameCoordinates,526C220A-A096-4E3C-8F2C-01EC2D9484EB*
G04*
G04*
G04 #@! TF.FilePolarity,Positive*
G04*
G01*
G75*
%ADD10C,0.2500*%
%ADD11C,0.1500*%
%ADD12C,0.2000*%
%ADD13C,0.6000*%
%ADD14C,0.2540*%
D10*
X54500Y109000D02*
G03*
X54500Y109000I-1250J0D01*
G01*
X504240Y167320D02*
G03*
X504240Y167320I-1250J0D01*
G01*
X188010Y129030D02*
G03*
X188010Y129030I-1250J0D01*
G01*
X257860Y416100D02*
G03*
X257860Y416100I-1250J0D01*
G01*
X46760Y314200D02*
G03*
X46760Y314200I-1250J0D01*
G01*
X473610Y363530D02*
G03*
X473610Y363530I-1250J0D01*
G01*
D11*
X462500Y247500D02*
G03*
X462500Y247500I-42500J0D01*
G01*
D12*
X163510Y143780D02*
G03*
X171760Y135530I8250J0D01*
G01*
X201760Y135530D02*
G03*
X210010Y143780I0J8250D01*
G01*
Y240780D02*
G03*
X201760Y249030I-8250J0D01*
G01*
X171760Y249030D02*
G03*
X163510Y240780I0J-8250D01*
G01*
X288360Y415000D02*
G03*
X301060Y415000I6350J0D01*
G01*
X65500Y115000D02*
X66250D01*
Y157250D02*
Y172750D01*
Y115000D02*
Y132750D01*
X40250Y195000D02*
X41000D01*
X40250Y177250D02*
Y195000D01*
Y137250D02*
Y152750D01*
X398000Y282750D02*
X442000D01*
X112300Y387300D02*
X137700D01*
X112300D02*
Y438100D01*
X137700D01*
Y387300D02*
Y438100D01*
X489990Y161320D02*
X490740D01*
X489990Y103570D02*
Y119070D01*
Y143570D02*
Y161320D01*
X515240Y81320D02*
X515990D01*
Y99070D01*
Y123570D02*
Y139070D01*
X210010Y143780D02*
Y240780D01*
X163510Y143780D02*
Y240780D01*
X171760Y249030D02*
X201760D01*
X171760Y135530D02*
X201760D01*
X268210Y61000D02*
Y415000D01*
X321210Y61000D02*
Y415000D01*
X268210D02*
X288360D01*
X301060D02*
X321210D01*
X268210Y61000D02*
X321210D01*
X399750Y84250D02*
X435750D01*
Y68250D02*
Y84250D01*
X399750Y68250D02*
X435750D01*
X399750D02*
Y84250D01*
Y76250D02*
X402500D01*
X433000D02*
X435750D01*
X105050Y122950D02*
X107250D01*
X105050Y161050D02*
X107250D01*
X128250D02*
X130450D01*
X128250Y122950D02*
X130450D01*
X105050D02*
Y161050D01*
X130450Y122950D02*
Y161050D01*
X128500Y245550D02*
X130700D01*
X128500Y207450D02*
X130700D01*
X105300D02*
X107500D01*
X105300Y245550D02*
X107500D01*
X130700Y207450D02*
Y245550D01*
X105300Y207450D02*
Y245550D01*
X184220Y329250D02*
Y334300D01*
Y370300D02*
Y375350D01*
X174220Y370300D02*
X194220D01*
X174220Y334300D02*
Y370300D01*
Y334300D02*
X194220D01*
Y370300D01*
X51510Y301200D02*
Y301950D01*
X93760Y301200D02*
X109260D01*
X51510D02*
X69260D01*
X131510Y326451D02*
Y327200D01*
X113760D02*
X131510D01*
X73760D02*
X89260D01*
X403110Y353030D02*
Y374030D01*
X467610Y353030D02*
Y374030D01*
X432500Y169500D02*
X435250D01*
X399250D02*
X402000D01*
X399250Y161500D02*
Y177500D01*
Y161500D02*
X435250D01*
Y177500D01*
X399250D02*
X435250D01*
X432500Y124000D02*
X435250D01*
X399250D02*
X402000D01*
X399250Y116000D02*
Y132000D01*
Y116000D02*
X435250D01*
Y132000D01*
X399250D02*
X435250D01*
X233664Y472831D02*
X231998Y474497D01*
X228666D01*
X227000Y472831D01*
Y471165D01*
X228666Y469498D01*
X231998D01*
X233664Y467832D01*
Y466166D01*
X231998Y464500D01*
X228666D01*
X227000Y466166D01*
X236997Y464500D02*
Y471165D01*
X238663D01*
X240329Y469498D01*
Y464500D01*
Y469498D01*
X241995Y471165D01*
X243661Y469498D01*
Y464500D01*
X248660Y471165D02*
X251992D01*
X253658Y469498D01*
Y464500D01*
X248660D01*
X246994Y466166D01*
X248660Y467832D01*
X253658D01*
X256990Y471165D02*
Y464500D01*
Y467832D01*
X258657Y469498D01*
X260323Y471165D01*
X261989D01*
X268653Y472831D02*
Y471165D01*
X266987D01*
X270319D01*
X268653D01*
Y466166D01*
X270319Y464500D01*
X285315Y474497D02*
Y464500D01*
X290313D01*
X291979Y466166D01*
Y472831D01*
X290313Y474497D01*
X285315D01*
X295311Y471165D02*
Y466166D01*
X296978Y464500D01*
X301976D01*
Y471165D01*
X305308Y464500D02*
X310306D01*
X311973Y466166D01*
X310306Y467832D01*
X306974D01*
X305308Y469498D01*
X306974Y471165D01*
X311973D01*
X316971Y472831D02*
Y471165D01*
X315305D01*
X318637D01*
X316971D01*
Y466166D01*
X318637Y464500D01*
X323635Y474497D02*
Y464500D01*
X328634D01*
X330300Y466166D01*
Y467832D01*
Y469498D01*
X328634Y471165D01*
X323635D01*
X333632Y464500D02*
X336965D01*
X335298D01*
Y471165D01*
X333632D01*
X341963Y464500D02*
Y471165D01*
X346961D01*
X348627Y469498D01*
Y464500D01*
X232000Y26997D02*
Y17000D01*
X235332Y20332D01*
X238664Y17000D01*
Y26997D01*
X241997Y17000D02*
Y18666D01*
X243663D01*
Y17000D01*
X241997D01*
X250327D02*
Y26997D01*
X253660Y23665D01*
X256992Y26997D01*
Y17000D01*
X260324D02*
Y18666D01*
X261990D01*
Y17000D01*
X260324D01*
X275319Y25331D02*
X273653Y26997D01*
X270321D01*
X268655Y25331D01*
Y18666D01*
X270321Y17000D01*
X273653D01*
X275319Y18666D01*
X278652Y17000D02*
Y18666D01*
X280318D01*
Y17000D01*
X278652D01*
X296979Y26997D02*
Y17000D01*
Y20332D01*
X303643Y26997D01*
X298645Y21998D01*
X303643Y17000D01*
X308642Y23665D02*
X311974D01*
X313640Y21998D01*
Y17000D01*
X308642D01*
X306976Y18666D01*
X308642Y20332D01*
X313640D01*
X316973Y23665D02*
X320305Y17000D01*
X323637Y23665D01*
X326969Y17000D02*
X330302D01*
X328635D01*
Y23665D01*
X326969D01*
X335300Y17000D02*
Y23665D01*
X340298D01*
X341964Y21998D01*
Y17000D01*
X351961Y26997D02*
Y17000D01*
X346963D01*
X345297Y18666D01*
Y21998D01*
X346963Y23665D01*
X351961D01*
X356960D02*
X360292D01*
X361958Y21998D01*
Y17000D01*
X356960D01*
X355294Y18666D01*
X356960Y20332D01*
X361958D01*
X113420Y446214D02*
Y456211D01*
X118418D01*
X120084Y454545D01*
Y451212D01*
X118418Y449546D01*
X113420D01*
X123417Y446214D02*
X126749D01*
X125083D01*
Y456211D01*
X123417Y454545D01*
X15002Y104185D02*
X23332D01*
X24998Y105851D01*
Y109183D01*
X23332Y110849D01*
X15002D01*
X24998Y114181D02*
Y117514D01*
Y115848D01*
X15002D01*
Y114181D01*
X16668Y124178D02*
X18334D01*
Y122512D01*
Y125844D01*
Y124178D01*
X23332D01*
X24998Y125844D01*
X18334Y130843D02*
X24998D01*
X21666D01*
X20000Y132509D01*
X18334Y134175D01*
Y135841D01*
Y142506D02*
Y145838D01*
X20000Y147504D01*
X24998D01*
Y142506D01*
X23332Y140840D01*
X21666Y142506D01*
Y147504D01*
X24998Y150836D02*
Y155835D01*
X23332Y157501D01*
X21666Y155835D01*
Y152502D01*
X20000Y150836D01*
X18334Y152502D01*
Y157501D01*
X24998Y162499D02*
Y165832D01*
X23332Y167498D01*
X20000D01*
X18334Y165832D01*
Y162499D01*
X20000Y160833D01*
X23332D01*
X24998Y162499D01*
Y170830D02*
X18334D01*
Y175828D01*
X20000Y177494D01*
X24998D01*
Y180827D02*
Y184159D01*
Y182493D01*
X18334D01*
Y180827D01*
Y195822D02*
Y190823D01*
X20000Y189157D01*
X23332D01*
X24998Y190823D01*
Y195822D01*
Y215815D02*
Y209151D01*
X18334Y215815D01*
X16668D01*
X15002Y214149D01*
Y210817D01*
X16668Y209151D01*
X248265Y430168D02*
Y436832D01*
X251597Y440164D01*
X254930Y436832D01*
Y430168D01*
Y435166D01*
X248265D01*
X259928Y438498D02*
Y436832D01*
X258262D01*
X261594D01*
X259928D01*
Y431834D01*
X261594Y430168D01*
X266593D02*
Y436832D01*
X268259D01*
X269925Y435166D01*
Y430168D01*
Y435166D01*
X271591Y436832D01*
X273257Y435166D01*
Y430168D01*
X281588D02*
X278256D01*
X276590Y431834D01*
Y435166D01*
X278256Y436832D01*
X281588D01*
X283254Y435166D01*
Y433500D01*
X276590D01*
X289918Y426836D02*
X291585D01*
X293251Y428502D01*
Y436832D01*
X288252D01*
X286586Y435166D01*
Y431834D01*
X288252Y430168D01*
X293251D01*
X298249Y436832D02*
X301581D01*
X303248Y435166D01*
Y430168D01*
X298249D01*
X296583Y431834D01*
X298249Y433500D01*
X303248D01*
X306580Y438498D02*
X308246Y440164D01*
X311578D01*
X313244Y438498D01*
Y436832D01*
X311578Y435166D01*
X309912D01*
X311578D01*
X313244Y433500D01*
Y431834D01*
X311578Y430168D01*
X308246D01*
X306580Y431834D01*
X323241Y430168D02*
X316577D01*
X323241Y436832D01*
Y438498D01*
X321575Y440164D01*
X318243D01*
X316577Y438498D01*
X326573D02*
X328240Y440164D01*
X331572D01*
X333238Y438498D01*
Y436832D01*
X331572Y435166D01*
X333238Y433500D01*
Y431834D01*
X331572Y430168D01*
X328240D01*
X326573Y431834D01*
Y433500D01*
X328240Y435166D01*
X326573Y436832D01*
Y438498D01*
X328240Y435166D02*
X331572D01*
X336570Y426836D02*
Y436832D01*
X341569D01*
X343235Y435166D01*
Y431834D01*
X341569Y430168D01*
X336570D01*
X229748Y273309D02*
X231415Y274975D01*
Y278307D01*
X229748Y279973D01*
X223084D01*
X221418Y278307D01*
Y274975D01*
X223084Y273309D01*
X228082Y269977D02*
X221418D01*
X224750D01*
X226416Y268311D01*
X228082Y266644D01*
Y264978D01*
Y259980D02*
X223084D01*
X221418Y258314D01*
Y253315D01*
X219752D01*
X218085Y254981D01*
Y256648D01*
X221418Y253315D02*
X228082D01*
X221418Y249983D02*
Y244985D01*
X223084Y243319D01*
X224750Y244985D01*
Y248317D01*
X226416Y249983D01*
X228082Y248317D01*
Y243319D01*
X229748Y238320D02*
X228082D01*
Y239986D01*
Y236654D01*
Y238320D01*
X223084D01*
X221418Y236654D01*
X228082Y229989D02*
Y226657D01*
X226416Y224991D01*
X221418D01*
Y229989D01*
X223084Y231656D01*
X224750Y229989D01*
Y224991D01*
X221418Y221659D02*
Y218327D01*
Y219993D01*
X231415D01*
Y221659D01*
Y198333D02*
Y201665D01*
X229748Y203331D01*
X223084D01*
X221418Y201665D01*
Y198333D01*
X223084Y196667D01*
X229748D01*
X231415Y198333D01*
X221418Y193335D02*
Y188336D01*
X223084Y186670D01*
X224750Y188336D01*
Y191668D01*
X226416Y193335D01*
X228082Y191668D01*
Y186670D01*
Y176673D02*
Y181672D01*
X226416Y183338D01*
X223084D01*
X221418Y181672D01*
Y176673D01*
Y173341D02*
Y170009D01*
Y171675D01*
X228082D01*
Y173341D01*
X221418Y165010D02*
Y161678D01*
Y163344D01*
X231415D01*
Y165010D01*
X221418Y156680D02*
Y153348D01*
Y155014D01*
X231415D01*
Y156680D01*
X228082Y146683D02*
Y143351D01*
X226416Y141685D01*
X221418D01*
Y146683D01*
X223084Y148349D01*
X224750Y146683D01*
Y141685D01*
X229748Y136686D02*
X228082D01*
Y138352D01*
Y135020D01*
Y136686D01*
X223084D01*
X221418Y135020D01*
Y128356D02*
Y125023D01*
X223084Y123357D01*
X226416D01*
X228082Y125023D01*
Y128356D01*
X226416Y130022D01*
X223084D01*
X221418Y128356D01*
X228082Y120025D02*
X221418D01*
X224750D01*
X226416Y118359D01*
X228082Y116693D01*
Y115027D01*
X535002Y153323D02*
X544998D01*
Y148324D01*
X543332Y146658D01*
X540000D01*
X538334Y148324D01*
Y153323D01*
Y149990D02*
X535002Y146658D01*
X543332Y136661D02*
X544998Y138327D01*
Y141660D01*
X543332Y143326D01*
X536668D01*
X535002Y141660D01*
Y138327D01*
X536668Y136661D01*
X540000D01*
Y139993D01*
X544998Y133329D02*
X535002D01*
Y128331D01*
X536668Y126664D01*
X538334D01*
X540000Y128331D01*
Y133329D01*
Y128331D01*
X541666Y126664D01*
X543332D01*
X544998Y128331D01*
Y133329D01*
Y113336D02*
X535002D01*
Y106671D01*
X544998Y96674D02*
Y103339D01*
X535002D01*
Y96674D01*
X540000Y103339D02*
Y100006D01*
X544998Y93342D02*
X535002D01*
Y88343D01*
X536668Y86677D01*
X543332D01*
X544998Y88343D01*
Y93342D01*
X35851Y345831D02*
Y337501D01*
X37517Y335835D01*
X40849D01*
X42515Y337501D01*
Y345831D01*
X45848Y335835D02*
X49180D01*
X47514D01*
Y345831D01*
X45848D01*
X55844Y344165D02*
Y342499D01*
X54178D01*
X57510D01*
X55844D01*
Y337501D01*
X57510Y335835D01*
X62509Y342499D02*
Y335835D01*
Y339167D01*
X64175Y340833D01*
X65841Y342499D01*
X67507D01*
X74172D02*
X77504D01*
X79170Y340833D01*
Y335835D01*
X74172D01*
X72506Y337501D01*
X74172Y339167D01*
X79170D01*
X82502Y335835D02*
X87501D01*
X89167Y337501D01*
X87501Y339167D01*
X84169D01*
X82502Y340833D01*
X84169Y342499D01*
X89167D01*
X94165Y335835D02*
X97498D01*
X99164Y337501D01*
Y340833D01*
X97498Y342499D01*
X94165D01*
X92499Y340833D01*
Y337501D01*
X94165Y335835D01*
X102496D02*
Y342499D01*
X107494D01*
X109160Y340833D01*
Y335835D01*
X112493D02*
X115825D01*
X114159D01*
Y342499D01*
X112493D01*
X127488D02*
X122490D01*
X120823Y340833D01*
Y337501D01*
X122490Y335835D01*
X127488D01*
X130820Y334169D02*
X137485D01*
X140817Y335835D02*
X144149D01*
X142483D01*
Y345831D01*
X140817Y344165D01*
X398265Y401832D02*
X396598Y403498D01*
X393266D01*
X391600Y401832D01*
Y400166D01*
X393266Y398500D01*
X396598D01*
X398265Y396834D01*
Y395168D01*
X396598Y393502D01*
X393266D01*
X391600Y395168D01*
X406595Y393502D02*
X403263D01*
X401597Y395168D01*
Y398500D01*
X403263Y400166D01*
X406595D01*
X408261Y398500D01*
Y396834D01*
X401597D01*
X411594Y400166D02*
Y393502D01*
Y396834D01*
X413260Y398500D01*
X414926Y400166D01*
X416592D01*
X421590D02*
X424923Y393502D01*
X428255Y400166D01*
X433253Y393502D02*
X436586D01*
X438252Y395168D01*
Y398500D01*
X436586Y400166D01*
X433253D01*
X431587Y398500D01*
Y395168D01*
X433253Y393502D01*
X451581D02*
Y400166D01*
X453247D01*
X454913Y398500D01*
Y393502D01*
Y398500D01*
X456579Y400166D01*
X458245Y398500D01*
Y393502D01*
X463244D02*
X466576D01*
X468242Y395168D01*
Y398500D01*
X466576Y400166D01*
X463244D01*
X461577Y398500D01*
Y395168D01*
X463244Y393502D01*
X473240Y401832D02*
Y400166D01*
X471574D01*
X474907D01*
X473240D01*
Y395168D01*
X474907Y393502D01*
X481571D02*
X484903D01*
X486569Y395168D01*
Y398500D01*
X484903Y400166D01*
X481571D01*
X479905Y398500D01*
Y395168D01*
X481571Y393502D01*
X489902Y400166D02*
Y393502D01*
Y396834D01*
X491568Y398500D01*
X493234Y400166D01*
X494900D01*
X404669Y186502D02*
Y196498D01*
X409668D01*
X411334Y194832D01*
Y191500D01*
X409668Y189834D01*
X404669D01*
X408002D02*
X411334Y186502D01*
X419664D02*
Y196498D01*
X414666Y191500D01*
X421331D01*
X405419Y140252D02*
Y150248D01*
X410418D01*
X412084Y148582D01*
Y145250D01*
X410418Y143584D01*
X405419D01*
X408752D02*
X412084Y140252D01*
X415416Y148582D02*
X417082Y150248D01*
X420415D01*
X422081Y148582D01*
Y146916D01*
X420415Y145250D01*
X418748D01*
X420415D01*
X422081Y143584D01*
Y141918D01*
X420415Y140252D01*
X417082D01*
X415416Y141918D01*
X410669Y92252D02*
Y102248D01*
X415668D01*
X417334Y100582D01*
Y97250D01*
X415668Y95584D01*
X410669D01*
X414002D02*
X417334Y92252D01*
X427331D02*
X420666D01*
X427331Y98916D01*
Y100582D01*
X425664Y102248D01*
X422332D01*
X420666Y100582D01*
X203335Y345002D02*
Y354998D01*
X208334D01*
X210000Y353332D01*
Y350000D01*
X208334Y348334D01*
X203335D01*
X206668D02*
X210000Y345002D01*
X213332D02*
X216665D01*
X214998D01*
Y354998D01*
X213332Y353332D01*
X112718Y262267D02*
X111052Y263933D01*
X107720D01*
X106054Y262267D01*
Y255602D01*
X107720Y253936D01*
X111052D01*
X112718Y255602D01*
X116051Y253936D02*
X119383D01*
X117717D01*
Y263933D01*
X116051Y262267D01*
D13*
X281210Y405000D02*
G03*
X281210Y405000I-3000J0D01*
G01*
D14*
X510040Y165040D02*
X516704D01*
X452540Y385040D02*
X459204D01*
X65040Y110040D02*
X71705D01*
X57540Y295040D02*
X64205D01*
X432540Y383372D02*
X439204D01*
X435872Y386704D02*
Y380040D01*
X117540Y298372D02*
X124205D01*
X120872Y301705D02*
Y295040D01*
X67540Y185872D02*
X74205D01*
X70872Y189205D02*
Y182540D01*
X142540Y395872D02*
X149205D01*
X145872Y399204D02*
Y392540D01*
X142540Y422540D02*
X149205D01*
X441434Y306162D02*
X439768Y307828D01*
X436436D01*
X434769Y306162D01*
Y299498D01*
X436436Y297832D01*
X439768D01*
X441434Y299498D01*
X444766Y306162D02*
X446432Y307828D01*
X449765D01*
X451431Y306162D01*
Y304496D01*
X449765Y302830D01*
X448098D01*
X449765D01*
X451431Y301164D01*
Y299498D01*
X449765Y297832D01*
X446432D01*
X444766Y299498D01*
X116084Y114582D02*
X114418Y116248D01*
X111086D01*
X109419Y114582D01*
Y107918D01*
X111086Y106252D01*
X114418D01*
X116084Y107918D01*
X126081Y106252D02*
X119416D01*
X126081Y112916D01*
Y114582D01*
X124415Y116248D01*
X121082D01*
X119416Y114582D01*
M02*
