M48
;Layer_Color=9474304
;FILE_FORMAT=4:4
METRIC,LZ
;TYPE=PLATED
T1F00S00C0.6500
T2F00S00C0.7000
T3F00S00C0.8000
T4F00S00C0.8900
T5F00S00C0.9000
T6F00S00C2.0000
%
T01
X0039275Y0007625
X0039225Y00124
Y001695
X0044225
Y00124
X0044275Y0007625
X0018422Y003195
Y003851
T02
X0018676Y0016788
Y0021668
T03
X0011775Y001293
Y001547
X00118Y002138
Y002392
X0042Y0023
Y00265
T04
X0050299Y0009132
Y0011132
Y0013132
Y0015132
X0005325Y00145
Y00165
Y00185
Y00125
X0006151Y003142
X0008151
X0010151
X0012151
X0041536Y0036373
X0043536
X0045536
T05
X0025661Y000729
Y000983
Y001237
Y001491
Y001745
Y001999
Y002253
Y002507
Y002761
X0033281
Y002507
Y002253
Y001999
Y001745
Y001491
Y001237
Y000983
Y000729
Y003015
Y003269
Y003523
Y003777
Y004031
X0025661
Y003777
Y003523
Y003269
Y003015
X00125Y004
Y004254
T06
X00535Y00025
X00025
Y00465
X00535
M30
