G04*
G04 #@! TF.GenerationSoftware,Altium Limited,Altium Designer,22.4.2 (48)*
G04*
G04 Layer_Color=32768*
%FSLAX44Y44*%
%MOMM*%
G71*
G04*
G04 #@! TF.SameCoordinates,526C220A-A096-4E3C-8F2C-01EC2D9484EB*
G04*
G04*
G04 #@! TF.FilePolarity,Positive*
G04*
G01*
G75*
%ADD38C,0.1000*%
%ADD39C,0.0500*%
D38*
X181760Y192280D02*
X191760D01*
X186760Y187280D02*
Y197280D01*
X289710Y238000D02*
X299710D01*
X294710Y233000D02*
Y243000D01*
X117750Y137000D02*
Y147000D01*
X112750Y142000D02*
X122750D01*
X118000Y221500D02*
Y231500D01*
X113000Y226500D02*
X123000D01*
D39*
X211010Y240967D02*
G03*
X202751Y250030I-8759J313D01*
G01*
X170760D02*
G03*
X162510Y240780I500J-8750D01*
G01*
Y143967D02*
G03*
X170760Y134717I8750J-500D01*
G01*
X202751D02*
G03*
X211010Y143780I-500J8750D01*
G01*
X162510Y143780D02*
Y240780D01*
X211010Y143780D02*
Y240780D01*
X170760Y250030D02*
X202751D01*
X170760Y134717D02*
X202751D01*
X104050Y121800D02*
Y162200D01*
Y121800D02*
X131450D01*
Y162200D01*
X104050D02*
X131450D01*
X131700Y206300D02*
Y246700D01*
X104300D02*
X131700D01*
X104300Y206300D02*
Y246700D01*
Y206300D02*
X131700D01*
M02*
